<?xml version="1.0" encoding="UTF-8"?>
<svg version="1.1" xmlns="http://www.w3.org/2000/svg" width="225" height="225">
<path d="M0 0 C74.25 0 148.5 0 225 0 C225 74.25 225 148.5 225 225 C150.75 225 76.5 225 0 225 C0 150.75 0 76.5 0 0 Z " fill="#041388" transform="translate(0,0)"/>
<path d="M0 0 C14.11683747 12.40506526 26.92052967 30.18762986 28.26953125 49.60498047 C28.36727538 53.03060674 28.38446673 56.44804205 28.375 59.875 C28.39111328 61.02613281 28.40722656 62.17726563 28.42382812 63.36328125 C28.43545052 83.98140783 19.88622346 101.57964327 5.875 116.375 C-11.95714938 133.38984253 -31.93911077 138.26429426 -56.125 137.96484375 C-76.03499549 137.30645888 -93.68413192 126.65265365 -107.125 112.375 C-122.93101314 93.7187222 -127.67418965 72.49633474 -125.9375 48.625 C-123.87159511 31.37764548 -114.16146009 16.41879141 -101.9375 4.625 C-101.24398437 3.90054688 -100.55046875 3.17609375 -99.8359375 2.4296875 C-73.0978928 -23.89541442 -28.42907576 -22.4022703 0 0 Z " fill="#FDFDFC" transform="translate(160.9375,51.375)"/>
<path d="M0 0 C74.25 0 148.5 0 225 0 C225 74.25 225 148.5 225 225 C150.75 225 76.5 225 0 225 C0 150.75 0 76.5 0 0 Z M85 7 C83.90816406 7.26683594 82.81632812 7.53367187 81.69140625 7.80859375 C63.98854621 12.6839224 49.23576546 22.50561185 36 35 C35.31035156 35.62519531 34.62070312 36.25039063 33.91015625 36.89453125 C20.56290998 49.4488718 11.31986629 67.32402539 7 85 C6.70222656 86.18464844 6.40445312 87.36929688 6.09765625 88.58984375 C1.77527159 108.20988472 2.45121942 130.213442 10 149 C10.33644531 149.89460937 10.67289063 150.78921875 11.01953125 151.7109375 C21.51943465 178.46988863 41.54966305 200.08180575 67.9375 211.875 C84.06099073 218.73848399 101.53823703 221.634601 119 221 C119.92425781 220.97035156 120.84851563 220.94070312 121.80078125 220.91015625 C150.18420168 219.18612627 176.55551944 203.41574451 195.37646484 182.87353516 C203.55285304 173.43810614 209.25334166 162.47320626 214 151 C214.39960938 150.0409375 214.79921875 149.081875 215.2109375 148.09375 C224.45327406 123.35486417 223.0247376 93.08591827 212.28125 69.03515625 C199.61992321 42.06942973 178.96935709 21.43889627 151.18359375 10.4375 C129.82440045 2.82701331 107.01938949 1.46520242 85 7 Z " fill="#FEFEFD" transform="translate(0,0)"/>
<path d="M0 0 C0.40347656 0.78246094 0.80695313 1.56492188 1.22265625 2.37109375 C3.57488802 5.85032887 5.41558084 6.08098738 9.4375 7.0625 C14.17006103 8.23083418 16.81860585 9.24017055 20 13 C19.67 13.99 19.34 14.98 19 16 C18.34 16 17.68 16 17 16 C16.34 17.65 15.68 19.3 15 21 C13.02 20.67 11.04 20.34 9 20 C9 21.32 9 22.64 9 24 C9.99 24.33 10.98 24.66 12 25 C12 26.65 12 28.3 12 30 C9.69 30 7.38 30 5 30 C5 32.64 5 35.28 5 38 C8.58327753 39.00217064 8.58327753 39.00217064 12 38 C12.625 40.8125 12.625 40.8125 13 44 C11 47 11 47 7.875 47.6875 C6.451875 47.8421875 6.451875 47.8421875 5 48 C5.8355043 52.0924487 6.72508331 56.17127311 7.625 60.25 C7.86089844 61.40886719 8.09679687 62.56773438 8.33984375 63.76171875 C9.63651293 70.66166557 9.63651293 70.66166557 14.00390625 75.77734375 C17.27238991 77.11115781 19.5041112 77.4064987 23 77 C24.80828106 75.19171894 24.56207902 72.85990531 24.56640625 70.4453125 C23.79555738 67.11737185 22.10818115 65.16961916 20 62.5 C15.37342392 56.53155221 15.37342392 56.53155221 15.125 52.8125 C16.59032901 46.42785216 20.23034319 42.23223852 25.375 38.3125 C28.27778488 36.26533941 28.27778488 36.26533941 28.375 33.1875 C28.25125 32.465625 28.1275 31.74375 28 31 C26.35 30.34 24.7 29.68 23 29 C22.505 30.485 22.505 30.485 22 32 C21.505 30.515 21.505 30.515 21 29 C24.75751503 24.30310621 24.75751503 24.30310621 27.9375 23.52734375 C31.51778883 23.3713842 33.73881093 23.8748469 37 25.4375 C39.54712654 28.70100588 39.6710414 30.774103 39.40625 34.83203125 C38.27259513 40.88182405 32.57400256 44.0182076 27.92578125 47.44921875 C25.89402939 48.86515475 25.89402939 48.86515475 25 51 C25.66 50.67 26.32 50.34 27 50 C31.31451788 49.49191971 34.83553114 49.30686377 38.625 51.5625 C40.5994537 55.06266793 40.05489746 57.20236913 39 61 C38.01 61.66 37.02 62.32 36 63 C35.34 60.69 34.68 58.38 34 56 C32.02 56 30.04 56 28 56 C26.93940503 58.56531141 26.93940503 58.56531141 27 62 C28.26658606 64.15629681 28.26658606 64.15629681 29.9375 66.3125 C32.88366371 70.36176221 33.63727572 73.09334314 33.50390625 78.0546875 C32.86914169 80.50517395 31.97261803 81.44242453 30 83 C24.60749825 84.79750058 19.18753896 84.76681926 13.9375 82.5 C12.968125 82.005 11.99875 81.51 11 81 C13.8795976 85.57748509 13.8795976 85.57748509 18 89 C20.32387947 89.39387788 22.65793749 89.73486085 25 90 C23 95 23 95 21.9453125 97.234375 C20.79351005 100.60411109 20.79561533 103.50830541 20.75 107.0625 C20.37601722 113.4335638 20.37601722 113.4335638 18.78125 115.8359375 C16.20089591 117.69221263 14.24855314 118.02161332 11.125 117.75 C10.073125 117.37875 10.073125 117.37875 9 117 C8.67 117.66 8.34 118.32 8 119 C7.34 119 6.68 119 6 119 C6 118.01 6 117.02 6 116 C4.02 116 2.04 116 0 116 C0 116.66 0 117.32 0 118 C-0.66 118 -1.32 118 -2 118 C-2.495 114.04 -2.495 114.04 -3 110 C0.43811169 106.83693724 3.44340596 106.51584083 8 106 C9.41577477 104.81575674 9.41577477 104.81575674 9.0625 101.4375 C9.041875 100.303125 9.02125 99.16875 9 98 C8.18595703 97.63648438 8.18595703 97.63648438 7.35546875 97.265625 C0.04963971 93.84307446 0.04963971 93.84307446 -2 90 C-2 89.34 -2 88.68 -2 88 C-6.96911366 89.12697043 -6.96911366 89.12697043 -11 92 C-10.77256695 94.95662966 -10.38764062 96.55033688 -8.4375 98.8125 C-7.963125 99.204375 -7.48875 99.59625 -7 100 C-7.928125 100.495 -8.85625 100.99 -9.8125 101.5 C-12.65986698 103.35178412 -13.51925682 104.83496336 -14.5 108.0625 C-15.57106771 111.5258327 -15.71454326 111.83105622 -19.0625 113.8125 C-20.5165625 114.4003125 -20.5165625 114.4003125 -22 115 C-22.66 115.99 -23.32 116.98 -24 118 C-24.66 117.67 -25.32 117.34 -26 117 C-26 116.01 -26 115.02 -26 114 C-29.12197478 115.3089572 -29.12197478 115.3089572 -31 118 C-32.485 117.505 -32.485 117.505 -34 117 C-34 116.01 -34 115.02 -34 114 C-35.94074861 114.27617533 -35.94074861 114.27617533 -38 115 C-38.66 115.99 -39.32 116.98 -40 118 C-41.6148266 113.91543861 -42.41164374 111.23493122 -41 107 C-37.86101934 103.86101934 -34.13464455 104.70443545 -29.84765625 104.63671875 C-26.81484682 104.27272299 -26.81484682 104.27272299 -25.14453125 101.65234375 C-23.77986836 98.48986559 -23.55509658 96.41092623 -24 93 C-24.515625 92.525625 -25.03125 92.05125 -25.5625 91.5625 C-27 90 -27 90 -27 86.6875 C-24.72012159 78.28044837 -17.94023748 74.55495198 -11 70 C-11.66 68.68 -12.32 67.36 -13 66 C-16.95895741 67.84871588 -20.34308634 70.30943991 -23.87890625 72.85546875 C-24.57886719 73.23316406 -25.27882813 73.61085938 -26 74 C-27.485 73.505 -27.485 73.505 -29 73 C-32.5 72.5 -32.5 72.5 -36 73 C-38.73364343 76.50014404 -39.35743136 79.0673097 -39.22265625 83.44921875 C-39.20396484 84.46177734 -39.18527344 85.47433594 -39.16601562 86.51757812 C-39.11477539 88.08668945 -39.11477539 88.08668945 -39.0625 89.6875 C-39.00272604 91.77450141 -38.95150506 93.861771 -38.91015625 95.94921875 C-38.88058838 96.87049561 -38.85102051 97.79177246 -38.82055664 98.7409668 C-39 101 -39 101 -41 103 C-43.625 102.625 -43.625 102.625 -46 102 C-46.77842938 98.59437148 -47.09978121 95.49234244 -47 92 C-46.34 92 -45.68 92 -45 92 C-45.33 85.4 -45.66 78.8 -46 72 C-47.485 72.495 -47.485 72.495 -49 73 C-49 71.68 -49 70.36 -49 69 C-49.66 69 -50.32 69 -51 69 C-50.4409112 65.75728494 -49.5867822 64.06942576 -47 62 C-46.34 62 -45.68 62 -45 62 C-45 54.41 -45 46.82 -45 39 C-45.99 39 -46.98 39 -48 39 C-49.28571429 30.57142857 -49.28571429 30.57142857 -48 26 C-46.35 26 -44.7 26 -43 26 C-43 25.34 -43 24.68 -43 24 C-44.32 24 -45.64 24 -47 24 C-47.33 23.01 -47.66 22.02 -48 21 C-49.2684375 19.9171875 -49.2684375 19.9171875 -50.5625 18.8125 C-53.35275834 15.59297114 -53.83337535 14.08168068 -53.54296875 9.9375 C-52.76426459 7.15881466 -51.18982191 5.47831991 -48.84375 3.8515625 C-45.4840859 2.29985323 -42.583674 2.13252336 -39 3 C-36.0872092 4.3453144 -35.16649933 5.4002008 -33 8 C-32.29634082 12.03004802 -32.02292205 14.30711403 -34.06640625 17.84765625 C-35.375 19.5 -35.375 19.5 -38 22 C-38.66 22 -39.32 22 -40 22 C-40 23.32 -40 24.64 -40 26 C-39.443125 26.268125 -38.88625 26.53625 -38.3125 26.8125 C-36 28 -36 28 -33.5 29.5625 C-28.95470979 32.17604187 -25.22183959 32.10041999 -20 32 C-18.29390917 29.22437838 -18.29390917 29.22437838 -18.3125 26.0625 C-18.539375 25.381875 -18.76625 24.70125 -19 24 C-19.34060811 22.33480481 -19.67558396 20.66842534 -20 19 C-18.329375 19.061875 -18.329375 19.061875 -16.625 19.125 C-12.95633975 19.41121859 -12.95633975 19.41121859 -11 17 C-11.32971479 13.70285207 -11.6226839 12.3773161 -14 10 C-12.8125 8.5 -12.8125 8.5 -11 7 C-8.3125 6.8125 -8.3125 6.8125 -6 7 C-5.896875 6.21625 -5.79375 5.4325 -5.6875 4.625 C-4.82572663 1.33459258 -3.53157582 0 0 0 Z " fill="#04158A" transform="translate(123,52)"/>
<path d="M0 0 C15.76085181 -0.07039328 31.52166048 -0.12313552 47.28263092 -0.15543652 C54.60237413 -0.17083975 61.92201911 -0.19180237 69.24169922 -0.22631836 C75.62897709 -0.25642299 82.01618374 -0.27562241 88.4035306 -0.28226548 C91.77889373 -0.28614255 95.15389339 -0.29674099 98.52922058 -0.31719017 C115.7483441 -0.41728981 131.71548383 0.01367689 148.125 5.75 C148.87015869 6.00604004 149.61531738 6.26208008 150.38305664 6.52587891 C166.5723582 12.26539195 179.54915864 21.2777793 192 33 C192.61488281 33.55042969 193.22976562 34.10085937 193.86328125 34.66796875 C211.95720016 51.51403118 223.07024642 78.70454109 224.1328125 103.04199219 C225.22474403 134.89909471 217.99801687 161.31812052 197 186 C196.43152344 186.72574219 195.86304688 187.45148438 195.27734375 188.19921875 C178.98658865 208.1419673 152.87706666 219.72407152 128 224 C95.35587855 225.84414279 64.6352207 220.21250693 39.44677734 198.08032227 C37.95339585 196.73243652 36.47629915 195.36657422 35 194 C34.19046875 193.27167969 33.3809375 192.54335937 32.546875 191.79296875 C19.09418092 179.11639164 10.2596183 162.74656899 4.625 145.3125 C4.38620117 144.57749268 4.14740234 143.84248535 3.90136719 143.08520508 C0.63069748 132.31589792 -0.30007314 121.43855845 -0.22705078 110.2331543 C-0.22734283 109.03156677 -0.22763489 107.82997925 -0.22793579 106.59197998 C-0.2267931 103.34278194 -0.21686389 100.09376329 -0.20278788 96.84460044 C-0.19016146 93.43203771 -0.18910074 90.0194703 -0.18673706 86.60688782 C-0.18055689 80.16512321 -0.16419373 73.72342767 -0.14403808 67.28169328 C-0.12157031 59.93934055 -0.11065849 52.59698428 -0.10064721 45.25460565 C-0.07982381 30.16969883 -0.04471632 15.08485637 0 0 Z M85 7 C83.90816406 7.26683594 82.81632812 7.53367187 81.69140625 7.80859375 C63.98854621 12.6839224 49.23576546 22.50561185 36 35 C35.31035156 35.62519531 34.62070312 36.25039063 33.91015625 36.89453125 C20.56290998 49.4488718 11.31986629 67.32402539 7 85 C6.70222656 86.18464844 6.40445312 87.36929688 6.09765625 88.58984375 C1.77527159 108.20988472 2.45121942 130.213442 10 149 C10.33644531 149.89460937 10.67289063 150.78921875 11.01953125 151.7109375 C21.51943465 178.46988863 41.54966305 200.08180575 67.9375 211.875 C84.06099073 218.73848399 101.53823703 221.634601 119 221 C119.92425781 220.97035156 120.84851563 220.94070312 121.80078125 220.91015625 C150.18420168 219.18612627 176.55551944 203.41574451 195.37646484 182.87353516 C203.55285304 173.43810614 209.25334166 162.47320626 214 151 C214.39960938 150.0409375 214.79921875 149.081875 215.2109375 148.09375 C224.45327406 123.35486417 223.0247376 93.08591827 212.28125 69.03515625 C199.61992321 42.06942973 178.96935709 21.43889627 151.18359375 10.4375 C129.82440045 2.82701331 107.01938949 1.46520242 85 7 Z " fill="#FEFEFD" transform="translate(0,0)"/>
<path d="M0 0 C3.42073594 2.91265605 6.72921299 5.92061877 10 9 C10.61488281 9.55042969 11.22976562 10.10085937 11.86328125 10.66796875 C29.95720016 27.51403118 41.07024642 54.70454109 42.1328125 79.04199219 C43.22474403 110.89909471 35.99801687 137.31812052 15 162 C14.43152344 162.72574219 13.86304688 163.45148438 13.27734375 164.19921875 C-3.01341135 184.1419673 -29.12293334 195.72407152 -54 200 C-86.64412145 201.84414279 -117.3647793 196.21250693 -142.55322266 174.08032227 C-144.04660415 172.73243652 -145.52370085 171.36657422 -147 170 C-147.80953125 169.27167969 -148.6190625 168.54335937 -149.453125 167.79296875 C-169.06336902 149.31408496 -181.04325845 121.44353469 -182.21484375 94.68359375 C-183.17327176 61.09297387 -171.6484522 32.25296956 -148.71875 7.66015625 C-133.75566137 -6.98045202 -114.27333181 -17.03040081 -94 -22 C-93.1853125 -22.20496094 -92.370625 -22.40992187 -91.53125 -22.62109375 C-60.23787578 -29.14054671 -24.69270232 -20.04422673 0 0 Z M-97 -17 C-98.09183594 -16.73316406 -99.18367188 -16.46632813 -100.30859375 -16.19140625 C-118.01145379 -11.3160776 -132.76423454 -1.49438815 -146 11 C-146.68964844 11.62519531 -147.37929687 12.25039063 -148.08984375 12.89453125 C-161.43709002 25.4488718 -170.68013371 43.32402539 -175 61 C-175.29777344 62.18464844 -175.59554687 63.36929688 -175.90234375 64.58984375 C-180.22472841 84.20988472 -179.54878058 106.213442 -172 125 C-171.66355469 125.89460937 -171.32710937 126.78921875 -170.98046875 127.7109375 C-160.48056535 154.46988863 -140.45033695 176.08180575 -114.0625 187.875 C-97.93900927 194.73848399 -80.46176297 197.634601 -63 197 C-62.07574219 196.97035156 -61.15148437 196.94070312 -60.19921875 196.91015625 C-31.81579832 195.18612627 -5.44448056 179.41574451 13.37646484 158.87353516 C21.55285304 149.43810614 27.25334166 138.47320626 32 127 C32.39960938 126.0409375 32.79921875 125.081875 33.2109375 124.09375 C42.45327406 99.35486417 41.0247376 69.08591827 30.28125 45.03515625 C17.61992321 18.06942973 -3.03064291 -2.56110373 -30.81640625 -13.5625 C-52.17559955 -21.17298669 -74.98061051 -22.53479758 -97 -17 Z " fill="#D79F14" transform="translate(182,24)"/>
<path d="M0 0 C2.9127908 1.3453144 3.83350067 2.4002008 6 5 C6.70365918 9.03004802 6.97707795 11.30711403 4.93359375 14.84765625 C3.625 16.5 3.625 16.5 1 19 C0.34 19 -0.32 19 -1 19 C-1 20.32 -1 21.64 -1 23 C-0.443125 23.268125 0.11375 23.53625 0.6875 23.8125 C3 25 3 25 5.5 26.5625 C10.04529021 29.17604187 13.77816041 29.10041999 19 29 C20.70609083 26.22437838 20.70609083 26.22437838 20.6875 23.0625 C20.460625 22.381875 20.23375 21.70125 20 21 C19.65939189 19.33480481 19.32441604 17.66842534 19 16 C19.78375 16.639375 20.5675 17.27875 21.375 17.9375 C23.79539281 19.98142313 23.79539281 19.98142313 26 21 C25.24796246 26.51494196 25.24796246 26.51494196 24.01953125 28.91796875 C22.60336138 31.80999382 22.20791247 34.7253195 21.66015625 37.87890625 C20.90422735 40.30771923 19.9139316 41.36768231 18 43 C18.33 43.99 18.66 44.98 19 46 C21.31 46.33 23.62 46.66 26 47 C22.58449904 50.69205434 18.46228024 52.72116862 14.0625 55.0625 C12.78838257 55.74119141 12.78838257 55.74119141 11.48852539 56.43359375 C5.768185 59.36726856 0.62487555 61.21038846 -5.84765625 61.71875 C-8.21161814 61.8052673 -8.21161814 61.8052673 -10 64 C-9.34 64.33 -8.68 64.66 -8 65 C-8 65.66 -8 66.32 -8 67 C-7.34 67.33 -6.68 67.66 -6 68 C-6 68.99 -6 69.98 -6 71 C-5.34 71 -4.68 71 -4 71 C-3.67 76.94 -3.34 82.88 -3 89 C-3 83.06 -3 77.12 -3 71 C-2.34 71 -1.68 71 -1 71 C0.50625309 76.12501676 0.18426165 81.32706245 0.1875 86.625 C0.19974609 87.6871875 0.21199219 88.749375 0.22460938 89.84375 C0.22750977 91.36355469 0.22750977 91.36355469 0.23046875 92.9140625 C0.23457764 93.8417041 0.23868652 94.7693457 0.24291992 95.72509766 C0 98 0 98 -2 100 C-4.625 99.625 -4.625 99.625 -7 99 C-7.77842938 95.59437148 -8.09978121 92.49234244 -8 89 C-7.34 89 -6.68 89 -6 89 C-6.33 82.4 -6.66 75.8 -7 69 C-8.485 69.495 -8.485 69.495 -10 70 C-10 68.68 -10 67.36 -10 66 C-10.66 66 -11.32 66 -12 66 C-11.4409112 62.75728494 -10.5867822 61.06942576 -8 59 C-7.34 59 -6.68 59 -6 59 C-6 51.41 -6 43.82 -6 36 C-6.99 36 -7.98 36 -9 36 C-10.28571429 27.57142857 -10.28571429 27.57142857 -9 23 C-7.35 23 -5.7 23 -4 23 C-4 22.34 -4 21.68 -4 21 C-5.32 21 -6.64 21 -8 21 C-8.33 20.01 -8.66 19.02 -9 18 C-10.2684375 16.9171875 -10.2684375 16.9171875 -11.5625 15.8125 C-14.35275834 12.59297114 -14.83337535 11.08168068 -14.54296875 6.9375 C-13.76426459 4.15881466 -12.18982191 2.47831991 -9.84375 0.8515625 C-6.4840859 -0.70014677 -3.583674 -0.86747664 0 0 Z " fill="#08168A" transform="translate(84,55)"/>
<path d="M0 0 C14.11683747 12.40506526 26.92052967 30.18762986 28.26953125 49.60498047 C28.36727538 53.03060674 28.38446673 56.44804205 28.375 59.875 C28.39111328 61.02613281 28.40722656 62.17726563 28.42382812 63.36328125 C28.43545052 83.98140783 19.88622346 101.57964327 5.875 116.375 C-11.95714938 133.38984253 -31.93911077 138.26429426 -56.125 137.96484375 C-76.03499549 137.30645888 -93.68413192 126.65265365 -107.125 112.375 C-122.93101314 93.7187222 -127.67418965 72.49633474 -125.9375 48.625 C-123.87159511 31.37764548 -114.16146009 16.41879141 -101.9375 4.625 C-101.24398437 3.90054688 -100.55046875 3.17609375 -99.8359375 2.4296875 C-73.0978928 -23.89541442 -28.42907576 -22.4022703 0 0 Z M-99.9375 5.625 C-100.85015625 6.40037109 -100.85015625 6.40037109 -101.78125 7.19140625 C-114.95796027 19.1402867 -123.02558691 38.3177677 -124.29296875 55.78125 C-125.19655288 75.7440525 -118.7959599 94.36114691 -105.9375 109.625 C-105.51339844 110.20507812 -105.08929688 110.78515625 -104.65234375 111.3828125 C-97.0491374 121.3809126 -84.43628085 128.24244579 -72.9375 132.625 C-71.63232422 133.13353516 -71.63232422 133.13353516 -70.30078125 133.65234375 C-52.22742713 139.37777126 -31.49502853 136.24229186 -14.6875 128.4375 C5.6863532 117.63109813 17.38022512 100.88442403 24.4934082 79.59448242 C28.52421084 65.64489645 27.66177547 47.96491692 22.0625 34.625 C21.66780518 33.67536377 21.66780518 33.67536377 21.26513672 32.70654297 C13.46967361 14.42889517 0.72132361 0.47960737 -17.49609375 -8.0234375 C-46.45376743 -19.39614476 -76.53348475 -15.72679749 -99.9375 5.625 Z " fill="#D49D16" transform="translate(160.9375,51.375)"/>
<path d="M0 0 C2.3125 0.1875 2.3125 0.1875 4 1 C3.67 1.99 3.34 2.98 3 4 C2.34 4 1.68 4 1 4 C1 4.66 1 5.32 1 6 C2.65 5.67 4.3 5.34 6 5 C5.34 6.32 4.68 7.64 4 9 C4.66 9.66 5.32 10.32 6 11 C5.505 11.45375 5.01 11.9075 4.5 12.375 C2.77390663 13.87635519 2.77390663 13.87635519 3 16 C3.33 15.34 3.66 14.68 4 14 C8.875 14.875 8.875 14.875 10 16 C10.33203125 18.3125 10.33203125 18.3125 10 21 C8.13671875 23.0625 8.13671875 23.0625 5.6875 25 C1.06199106 28.69444836 -1.56574556 31.7102948 -2.6875 37.625 C-2.55694296 42.94771024 1.05682176 46.30186368 4.2109375 50.30859375 C6.82293433 54.2379951 6.83204208 56.42376859 6 61 C4 63 4 63 1.25 63.375 C-2.9565283 62.88963135 -4.83386964 61.8143381 -8 59 C-11.78129529 51.29736145 -14.3348984 41.59572557 -14 33 C-12.02 32.34 -10.04 31.68 -8 31 C-7.67 29.02 -7.34 27.04 -7 25 C-7.66 25 -8.32 25 -9 25 C-13.82352941 24.17647059 -13.82352941 24.17647059 -15 23 C-15.1328125 21.1875 -15.1328125 21.1875 -15.125 19 C-15.12757812 18.278125 -15.13015625 17.55625 -15.1328125 16.8125 C-15 15 -15 15 -14 14 C-11.66055264 14.28730055 -9.3260857 14.61936779 -7 15 C-7 13.35 -7 11.7 -7 10 C-8.32 9.67 -9.64 9.34 -11 9 C-10.67 7.68 -10.34 6.36 -10 5 C-9.278125 5.103125 -8.55625 5.20625 -7.8125 5.3125 C-4.73320316 5.26679684 -4.73320316 5.26679684 -2.4375 2.4375 C-1.633125 1.633125 -0.82875 0.82875 0 0 Z " fill="#F5F5F7" transform="translate(142,67)"/>
<path d="M0 0 C0.66 0.33 1.32 0.66 2 1 C2 7.6 2 14.2 2 21 C2.66 21 3.32 21 4 21 C4 14.4 4 7.8 4 1 C11 2 11 2 13 3 C12.67 4.98 12.34 6.96 12 9 C16.54805635 9.17835515 19.8794254 8.99785435 24 7 C24.33 7.66 24.66 8.32 25 9 C27.32156597 9.40729228 29.6568787 9.74438677 32 10 C28.58449904 13.69205434 24.46228024 15.72116862 20.0625 18.0625 C18.78838257 18.74119141 18.78838257 18.74119141 17.48852539 19.43359375 C11.768185 22.36726856 6.62487555 24.21038846 0.15234375 24.71875 C-2.21161814 24.8052673 -2.21161814 24.8052673 -4 27 C-3.34 27.33 -2.68 27.66 -2 28 C-2 28.66 -2 29.32 -2 30 C-1.34 30.33 -0.68 30.66 0 31 C0 31.99 0 32.98 0 34 C0.66 34 1.32 34 2 34 C2.33 39.94 2.66 45.88 3 52 C3 46.06 3 40.12 3 34 C3.66 34 4.32 34 5 34 C6.50625309 39.12501676 6.18426165 44.32706245 6.1875 49.625 C6.19974609 50.6871875 6.21199219 51.749375 6.22460938 52.84375 C6.22750977 54.36355469 6.22750977 54.36355469 6.23046875 55.9140625 C6.23457764 56.8417041 6.23868652 57.7693457 6.24291992 58.72509766 C6 61 6 61 4 63 C1.375 62.625 1.375 62.625 -1 62 C-1.77842938 58.59437148 -2.09978121 55.49234244 -2 52 C-1.34 52 -0.68 52 0 52 C-0.33 45.4 -0.66 38.8 -1 32 C-2.485 32.495 -2.485 32.495 -4 33 C-4 31.68 -4 30.36 -4 29 C-4.66 29 -5.32 29 -6 29 C-5.4409112 25.75728494 -4.5867822 24.06942576 -2 22 C-1.34 22 -0.68 22 0 22 C0 14.74 0 7.48 0 0 Z " fill="#6776B2" transform="translate(78,92)"/>
<path d="M0 0 C3.36783781 0.70615954 4.82085562 1.69429938 6.9375 4.40625 C7.84306763 8.70168585 7.61391312 12.17106082 5.5 16.03125 C2.44279515 18.86475693 -0.78417509 21.38084159 -4.13671875 23.85546875 C-6.16847061 25.27140475 -6.16847061 25.27140475 -7.0625 27.40625 C-6.4025 27.07625 -5.7425 26.74625 -5.0625 26.40625 C-0.74798212 25.89816971 2.77303114 25.71311377 6.5625 27.96875 C8.5369537 31.46891793 7.99239746 33.60861913 6.9375 37.40625 C5.9475 38.06625 4.9575 38.72625 3.9375 39.40625 C2.9475 35.94125 2.9475 35.94125 1.9375 32.40625 C-0.0425 32.40625 -2.0225 32.40625 -4.0625 32.40625 C-5.12309497 34.97156141 -5.12309497 34.97156141 -5.0625 38.40625 C-3.79591394 40.56254681 -3.79591394 40.56254681 -2.125 42.71875 C0.82116371 46.76801221 1.57477572 49.49959314 1.44140625 54.4609375 C0.80664169 56.91142395 -0.08988197 57.84867453 -2.0625 59.40625 C-4.88966095 60.34863698 -6.69426123 60.54090647 -9.625 60.53125 C-10.80255859 60.53511719 -10.80255859 60.53511719 -12.00390625 60.5390625 C-14.0625 60.40625 -14.0625 60.40625 -16.0625 59.40625 C-16.0625 58.74625 -16.0625 58.08625 -16.0625 57.40625 C-16.7225 57.40625 -17.3825 57.40625 -18.0625 57.40625 C-18.0625 56.74625 -18.0625 56.08625 -18.0625 55.40625 C-17.30324219 55.50164062 -16.54398438 55.59703125 -15.76171875 55.6953125 C-14.76785156 55.80617187 -13.77398437 55.91703125 -12.75 56.03125 C-11.76386719 56.14726562 -10.77773437 56.26328125 -9.76171875 56.3828125 C-6.83592584 56.66101995 -6.83592584 56.66101995 -4.0625 54.40625 C-3.20503032 49.4952873 -3.10835142 46.90320311 -5.8203125 42.6484375 C-6.53960937 41.72289062 -7.25890625 40.79734375 -8 39.84375 C-12.77776703 33.67888932 -12.77776703 33.67888932 -13.625 30.34375 C-12.61571202 23.27873412 -6.89608719 18.96374408 -1.77734375 14.34375 C0.32396519 12.36747317 0.32396519 12.36747317 0.1875 8.65625 C0.105 7.58375 0.0225 6.51125 -0.0625 5.40625 C-3.0325 5.40625 -6.0025 5.40625 -9.0625 5.40625 C-9.3925 6.39625 -9.7225 7.38625 -10.0625 8.40625 C-10.3925 7.41625 -10.7225 6.42625 -11.0625 5.40625 C-7.64065011 1.12893764 -5.36697134 -0.40658874 0 0 Z " fill="#07148A" transform="translate(155.0625,75.59375)"/>
<path d="M0 0 C3.3 0 6.6 0 10 0 C10 0.66 10 1.32 10 2 C10.598125 2.061875 11.19625 2.12375 11.8125 2.1875 C14 3 14 3 15.8125 5.0625 C17.38020857 8.94051595 17.26480888 12.08699753 16 16 C13.94023114 19.02528551 12.40203299 20.56105781 8.87890625 21.6640625 C4.6753175 22.38710812 2.48487967 22.22921585 -1.4375 20.375 C-4.18976634 17.824119 -5.25272717 16.65333382 -6 13 C-6.03944219 10.07564349 -5.6695222 7.91720387 -5 5 C-3 3.6875 -3 3.6875 -1 3 C-0.67 2.01 -0.34 1.02 0 0 Z " fill="#EED0D6" transform="translate(197,125)"/>
<path d="M0 0 C2.87029869 1.79393668 4.49131638 2.98263276 6 6 C6.34717992 11.29449372 6.52421718 14.74663444 3 19 C0.71704562 20.95681804 -0.89058552 21.94374166 -3.92578125 22.09765625 C-7.35048724 21.83322509 -9.8379785 21.07928712 -12.9375 19.5625 C-16.04340526 15.70364802 -16.27602539 11.86593324 -16 7 C-14.78580996 3.93257254 -13.97408051 2.5844483 -11.1640625 0.8984375 C-7.49061082 -0.62664172 -3.90256968 -0.58434198 0 0 Z " fill="#EECDD3" transform="translate(28,125)"/>
<path d="M0 0 C2.97672584 1.77280561 5.42804007 3.85608015 7 7 C7.67660495 12.86390959 7.67660495 12.86390959 5.953125 15.7578125 C3.02250123 19.32627792 1.32898658 20.84665539 -3.25 21.375 C-8.19272958 20.88072704 -9.53828301 19.46171699 -13 16 C-14.57455739 12.85088521 -14.34799118 10.47991184 -14 7 C-10.42200413 0.99217111 -6.89711987 -0.68971199 0 0 Z " fill="#FEB3B3" transform="translate(205,78)"/>
<path d="M0 0 C3.95403662 0.26360244 5.65370756 0.86143155 8.75 3.25 C11.41836411 7.25254616 11.5840238 10.54313299 10.75 15.25 C8.56840855 18.00569447 6.87822506 19.68588747 3.75 21.25 C-0.1579648 21.69408691 -1.99548146 21.38704844 -5.5 19.5 C-9.48026316 16.24342105 -9.48026316 16.24342105 -10.25 13.25 C-10.16804478 8.74246294 -9.73833209 6.8115819 -6.75 3.375 C-5.5125 2.323125 -5.5125 2.323125 -4.25 1.25 C-3.25 0.25 -3.25 0.25 0 0 Z " fill="#FE6161" transform="translate(22.25,77.75)"/>
<path d="M0 0 C1.36878548 2.74356126 2.72013177 5.49355105 4.0625 8.25 C4.64741211 9.41595703 4.64741211 9.41595703 5.24414062 10.60546875 C5.60830078 11.35957031 5.97246094 12.11367188 6.34765625 12.890625 C6.68804932 13.58188477 7.02844238 14.27314453 7.37915039 14.98535156 C8.11635505 17.37757053 7.80784795 18.66570847 7 21 C5.35 21.33 3.7 21.66 2 22 C-1 17.25 -1 17.25 -1 15 C-1.99 15.33 -2.98 15.66 -4 16 C-3.34 18.97 -2.68 21.94 -2 25 C-3.98 25.66 -5.96 26.32 -8 27 C-9.31746333 24.41909233 -10.62909617 21.83549542 -11.9375 19.25 C-12.31068359 18.52039063 -12.68386719 17.79078125 -13.06835938 17.0390625 C-13.42607422 16.33007812 -13.78378906 15.62109375 -14.15234375 14.890625 C-14.6472229 13.91657715 -14.6472229 13.91657715 -15.15209961 12.92285156 C-16.01452116 10.96706921 -16.54374179 9.08459306 -17 7 C-14.35261084 5.5393715 -13.10551666 5 -10 5 C-9.34 6.98 -8.68 8.96 -8 11 C-7.01 10.67 -6.02 10.34 -5 10 C-5.66 7.36 -6.32 4.72 -7 2 C-4.35261084 0.5393715 -3.10551666 0 0 0 Z " fill="#E2CB9E" transform="translate(77,15)"/>
<path d="M0 0 C0 1.258125 0 2.51625 0 3.8125 C0.45942994 8.45055466 2.1940384 10.94024514 5.0625 14.5625 C9.57101 20.3050029 9.57101 20.3050029 9.625 24.5625 C9 28 9 28 7 30 C3.05208529 30.34329693 0.33662492 30.1763609 -3 28 C-3.80541992 26.23168945 -3.80541992 26.23168945 -4.23046875 24.11328125 C-4.39353516 23.33919922 -4.55660156 22.56511719 -4.72460938 21.76757812 C-4.87736328 20.95740234 -5.03011719 20.14722656 -5.1875 19.3125 C-5.35185547 18.52166016 -5.51621094 17.73082031 -5.68554688 16.91601562 C-6.62777112 12.29644656 -7.38066771 7.67314365 -8 3 C-1.125 0 -1.125 0 0 0 Z " fill="#FCFCFD" transform="translate(139,100)"/>
<path d="M0 0 C2.5654594 2.5654594 2.54046087 4.47686668 3 8 C3.66 7.67 4.32 7.34 5 7 C11.27035831 6.42996743 11.27035831 6.42996743 14 8.5625 C15.41694272 12.01629789 14.87594988 14.42881972 14 18 C11.78704384 19.10647808 10.45327301 19.19588368 8 19.25 C7.29875 19.27578125 6.5975 19.3015625 5.875 19.328125 C5.25625 19.21984375 4.6375 19.1115625 4 19 C1.70986347 15.5647952 1.82157027 14.014669 2 10 C1.484375 10.350625 0.96875 10.70125 0.4375 11.0625 C-2.96469159 12.37103523 -5.48525684 11.729475 -9 11 C-10 10 -10 10 -10.3125 6.125 C-10.26489118 3.17854291 -10.24596283 2.31218359 -8.375 -0.0625 C-5.19296594 -1.31856608 -3.25787048 -0.92070253 0 0 Z " fill="#D9C095" transform="translate(60,182)"/>
<path d="M0 0 C0 1.32 0 2.64 0 4 C-2.31 4.66 -4.62 5.32 -7 6 C-6.67039784 11.01535052 -6.67039784 11.01535052 -4 15 C-0.91652174 15.16681109 -0.91652174 15.16681109 2 15 C2.33 12.69 2.66 10.38 3 8 C4.65 7.67 6.3 7.34 8 7 C8.78512397 15.00826446 8.78512397 15.00826446 5.625 19 C1.99705331 21.76414986 -0.27122691 22.39306028 -4.89453125 22.359375 C-8.61593453 21.72418186 -10.40312849 19.66020984 -13 17 C-14.72869779 13.54260443 -14.48966895 9.78024432 -14 6 C-10.0254903 -0.35921552 -6.95594861 -0.11219272 0 0 Z " fill="#E3CA96" transform="translate(55,31)"/>
<path d="M0 0 C0 1.32 0 2.64 0 4 C-2.31 4.33 -4.62 4.66 -7 5 C-7 6.32 -7 7.64 -7 9 C-4.36 8.67 -1.72 8.34 1 8 C1 9.32 1 10.64 1 12 C-0.98 12.33 -2.96 12.66 -5 13 C-5 14.32 -5 15.64 -5 17 C-1.04 16.505 -1.04 16.505 3 16 C3 17.65 3 19.3 3 21 C-2.13951171 22.41779633 -5.50953976 23 -11 23 C-12.32 16.07 -13.64 9.14 -15 2 C-3.375 -1.125 -3.375 -1.125 0 0 Z " fill="#EEDEBB" transform="translate(100,10)"/>
<path d="M0 0 C3.96 1.98 7.92 3.96 12 6 C11.67 7.32 11.34 8.64 11 10 C8.69 9.34 6.38 8.68 4 8 C3.67 8.99 3.34 9.98 3 11 C5.475 11.99 5.475 11.99 8 13 C7.67 14.32 7.34 15.64 7 17 C4.69 16.67 2.38 16.34 0 16 C-0.33 16.99 -0.66 17.98 -1 19 C0.98 19.66 2.96 20.32 5 21 C4.01 23.475 4.01 23.475 3 26 C-1.29 24.02 -5.58 22.04 -10 20 C-7.75 13.25 -7.75 13.25 -6.0546875 10.3515625 C-5.70019531 9.73925781 -5.34570312 9.12695312 -4.98046875 8.49609375 C-4.61566406 7.87863281 -4.25085938 7.26117187 -3.875 6.625 C-3.50246094 5.98433594 -3.12992188 5.34367187 -2.74609375 4.68359375 C-1.83565998 3.11951523 -0.91851809 1.55934466 0 0 Z " fill="#E6CE9B" transform="translate(153,17)"/>
<path d="M0 0 C2.875 1.75 2.875 1.75 5 4 C5 5.32 5 6.64 5 8 C3.68 8.33 2.36 8.66 1 9 C0.67 7.68 0.34 6.36 0 5 C-0.66 5.66 -1.32 6.32 -2 7 C-1.55527344 7.44730469 -1.11054688 7.89460938 -0.65234375 8.35546875 C3.96699928 13.29048442 3.96699928 13.29048442 4.125 16.6875 C2.73754614 19.53948849 1.57529743 21.12072891 -1 23 C-4.88129052 23.6606452 -6.49933146 23.30475477 -9.875 21.25 C-12 19 -12 19 -12 15 C-10.25 14.25 -10.25 14.25 -8 14 C-5.75 15.9375 -5.75 15.9375 -4 18 C-4 16.68 -4 15.36 -4 14 C-4.928125 13.566875 -4.928125 13.566875 -5.875 13.125 C-8 12 -8 12 -10 10 C-10.46879799 6.40588208 -10.44361448 4.64835963 -8.375 1.625 C-5.26965639 -0.49970879 -3.6986604 -0.60386292 0 0 Z " fill="#E5CEA1" transform="translate(138,11)"/>
<path d="M0 0 C1.32 0.66 2.64 1.32 4 2 C4.08984375 4.671875 4.08984375 4.671875 3 8 C0.09360726 10.22221657 -3.13585883 11.6985399 -6.4375 13.25 C-8.18757969 14.10655758 -9.93634325 14.96581097 -11.68359375 15.828125 C-12.46275146 16.1984082 -13.24190918 16.56869141 -14.04467773 16.95019531 C-16.15377997 17.96143936 -16.15377997 17.96143936 -18 20 C-18.4167552 22.95788569 -18.4167552 22.95788569 -18 26 C-17.484375 26.474375 -16.96875 26.94875 -16.4375 27.4375 C-15 29 -15 29 -15 32.3125 C-16.22963078 36.84676351 -17.74688612 38.66754187 -21 42 C-24.4232505 43.71162525 -28.3702079 43.29251036 -32.15234375 43.42578125 C-35.1257279 43.7350769 -35.1257279 43.7350769 -36.87890625 46.04296875 C-37.43384766 47.01169922 -37.43384766 47.01169922 -38 48 C-37.25 43.25 -37.25 43.25 -35 41 C-31.94449206 40.73181873 -28.91404356 40.685155 -25.84765625 40.63671875 C-22.81484682 40.27272299 -22.81484682 40.27272299 -21.14453125 37.65234375 C-19.77986836 34.48986559 -19.55509658 32.41092623 -20 29 C-20.515625 28.525625 -21.03125 28.05125 -21.5625 27.5625 C-23 26 -23 26 -23 22.6875 C-21.04818082 15.49016677 -16.31062445 12.18535186 -10.2890625 8.30859375 C-8.21980918 7.12565883 -6.22263487 6.22106471 -4 5.375 C-0.85607686 4.34027616 -0.85607686 4.34027616 -0.0625 1.8125 C-0.041875 1.214375 -0.02125 0.61625 0 0 Z " fill="#6877B4" transform="translate(119,116)"/>
<path d="M0 0 C2.31 0.33 4.62 0.66 7 1 C7.8125 4.1875 7.8125 4.1875 8 8 C6.38001913 9.985783 4.92705103 11.3591004 3 13 C-2.97788102 18.47518809 -2.97788102 18.47518809 -5.5 25.875 C-4.59031946 29.72012027 -2.33350854 32.35569295 0.0625 35.4375 C3.41277657 39.76218375 5.11534743 42.65796941 4.51171875 48.1796875 C4 50 4 50 2.5625 52.125 C-1.40096408 53.47837798 -4.97287554 52.99754459 -9 52 C-11.5625 50.4375 -11.5625 50.4375 -13 49 C-12.67 48.34 -12.34 47.68 -12 47 C-11.46375 47.33 -10.9275 47.66 -10.375 48 C-7.43720283 49.23696723 -5.15845117 49.21056341 -2 49 C-0.19171894 47.19171894 -0.43792098 44.85990531 -0.43359375 42.4453125 C-1.20444262 39.11737185 -2.89181885 37.16961916 -5 34.5 C-9.62657608 28.53155221 -9.62657608 28.53155221 -9.875 24.8125 C-8.40967099 18.42785216 -4.76965681 14.23223852 0.375 10.3125 C3.21356773 8.27434569 3.21356773 8.27434569 3.5625 5.375 C2.92592939 2.68725741 2.14015445 1.69428894 0 0 Z " fill="#6877B4" transform="translate(148,80)"/>
<path d="M0 0 C-2.43458271 8.41217604 -5.20143786 16.70386716 -8 25 C-11.38544358 23.44118521 -12.67812789 22.55888646 -14 19 C-14.37668344 17.34259285 -14.72057545 15.67654729 -15 14 C-16.98 14.33 -18.96 14.66 -21 15 C-21.66 13.68 -22.32 12.36 -23 11 C-19.54515902 9.16002803 -16.0855752 7.32916118 -12.625 5.5 C-11.64015625 4.97535156 -10.6553125 4.45070313 -9.640625 3.91015625 C-8.22910156 3.16572266 -8.22910156 3.16572266 -6.7890625 2.40625 C-5.91975098 1.94541016 -5.05043945 1.48457031 -4.15478516 1.00976562 C-2 0 -2 0 0 0 Z " fill="#F1DDB0" transform="translate(182,32)"/>
<path d="M0 0 C0.99 0.33 1.98 0.66 3 1 C4.1875 3.5625 4.1875 3.5625 5 6 C0.38194915 9.23263559 -4.63214705 10.53035482 -10 12 C-10.33 11.67 -10.66 11.34 -11 11 C-15.19312773 10.55988027 -15.19312773 10.55988027 -18.8125 12.375 C-21.06200193 15.4532658 -21.11837014 17.45663521 -21.09765625 21.2265625 C-21.09443359 22.2578125 -21.09121094 23.2890625 -21.08789062 24.3515625 C-21.07951172 25.43179688 -21.07113281 26.51203125 -21.0625 27.625 C-21.05798828 28.71296875 -21.05347656 29.8009375 -21.04882812 30.921875 C-21.03701776 33.61463789 -21.02054778 36.30729188 -21 39 C-19.35 39 -17.7 39 -16 39 C-16 39.33 -16 39.66 -16 40 C-23.625 41 -23.625 41 -27 41 C-27.66 40.01 -28.32 39.02 -29 38 C-27.68 37.34 -26.36 36.68 -25 36 C-25.01571045 35.3294458 -25.0314209 34.6588916 -25.04760742 33.96801758 C-25.11014658 30.9162649 -25.14905063 27.86464732 -25.1875 24.8125 C-25.21263672 23.75740234 -25.23777344 22.70230469 -25.26367188 21.61523438 C-25.27333984 20.59365234 -25.28300781 19.57207031 -25.29296875 18.51953125 C-25.3086792 17.58214111 -25.32438965 16.64475098 -25.34057617 15.67895508 C-24.89633929 12.18461003 -23.50536206 9.50536206 -21 7 C-17.33655389 6.86431681 -14.49384279 6.83538574 -11 8 C-8.71733507 6.8688656 -8.71733507 6.8688656 -6.4375 5.1875 C-5.25994141 4.37345703 -5.25994141 4.37345703 -4.05859375 3.54296875 C-1.92598097 2.02046228 -1.92598097 2.02046228 0 0 Z " fill="#D1D3D6" transform="translate(108,117)"/>
<path d="M0 0 C2.31 0 4.62 0 7 0 C7 5.61 7 11.22 7 17 C9.31 17 11.62 17 14 17 C14 18.65 14 20.3 14 22 C9.38 22 4.76 22 0 22 C0 14.74 0 7.48 0 0 Z " fill="#E7D09F" transform="translate(108,9)"/>
<path d="M0 0 C6 1 6 1 8 2 C7.67 3.98 7.34 5.96 7 8 C11.54805635 8.17835515 14.8794254 7.99785435 19 6 C19.33 6.99 19.66 7.98 20 9 C17.60688647 10.46295997 15.21071914 11.9204522 12.8125 13.375 C12.13896484 13.7875 11.46542969 14.2 10.77148438 14.625 C10.11083984 15.02460937 9.45019531 15.42421875 8.76953125 15.8359375 C8.16729736 16.20251465 7.56506348 16.5690918 6.94458008 16.94677734 C4.72106199 18.15107829 2.34784814 19.06086074 0 20 C0 13.4 0 6.8 0 0 Z " fill="#F9F9FB" transform="translate(83,93)"/>
<path d="M0 0 C2.3125 0.1875 2.3125 0.1875 4 1 C3.67 1.99 3.34 2.98 3 4 C2.34 4 1.68 4 1 4 C1 4.66 1 5.32 1 6 C2.65 5.67 4.3 5.34 6 5 C5.3125 6.9375 5.3125 6.9375 4 9 C0.86992077 10.1843543 -0.62394724 10.12535092 -3.8125 9.0625 C-4.534375 8.711875 -5.25625 8.36125 -6 8 C-6 9.65 -6 11.3 -6 13 C-5.01 13.33 -4.02 13.66 -3 14 C-3 15.65 -3 17.3 -3 19 C-5.31 18.67 -7.62 18.34 -10 18 C-10.66 19.98 -11.32 21.96 -12 24 C-12.99 23.67 -13.98 23.34 -15 23 C-15.09765625 16.84765625 -15.09765625 16.84765625 -15 15 C-14.67 14.67 -14.34 14.34 -14 14 C-11.66055264 14.28730055 -9.3260857 14.61936779 -7 15 C-7 13.35 -7 11.7 -7 10 C-8.32 9.67 -9.64 9.34 -11 9 C-10.67 7.68 -10.34 6.36 -10 5 C-9.278125 5.103125 -8.55625 5.20625 -7.8125 5.3125 C-4.73320316 5.26679684 -4.73320316 5.26679684 -2.4375 2.4375 C-1.633125 1.633125 -0.82875 0.82875 0 0 Z " fill="#C9CAD0" transform="translate(142,67)"/>
<path d="M0 0 C1.98 0 3.96 0 6 0 C5.72285156 0.54269531 5.44570312 1.08539063 5.16015625 1.64453125 C4.79792969 2.35996094 4.43570313 3.07539063 4.0625 3.8125 C3.70285156 4.52019531 3.34320313 5.22789062 2.97265625 5.95703125 C1.0198556 10.05869687 0.72644196 13.68826087 0.4375 18.1875 C0.35371094 19.45980469 0.26992187 20.73210937 0.18359375 22.04296875 C0.12300781 23.01878906 0.06242188 23.99460938 0 25 C-1.65 25.33 -3.3 25.66 -5 26 C-5 26.66 -5 27.32 -5 28 C-6.98 27.67 -8.96 27.34 -11 27 C-11.33 27.66 -11.66 28.32 -12 29 C-12.66 29 -13.32 29 -14 29 C-14.33 27.35 -14.66 25.7 -15 24 C-12.50935112 23.31292445 -10.62113708 23 -8 23 C-5.76774088 22.54288129 -5.76774088 22.54288129 -4 21 C-3.40309545 17.89283935 -3.40309545 17.89283935 -3.4375 14.3125 C-3.20868479 8.74656994 -2.66551606 4.86746411 0 0 Z " fill="#CDD0D3" transform="translate(146,145)"/>
<path d="M0 0 C0.33 0.66 0.66 1.32 1 2 C1.66 2 2.32 2 3 2 C3 2.66 3 3.32 3 4 C3.99 4.33 4.98 4.66 6 5 C6 5.66 6 6.32 6 7 C7.32 7.33 8.64 7.66 10 8 C10.33 6.68 10.66 5.36 11 4 C11.36667611 8.27788797 10.60609964 10.58511082 8 14 C5.71704562 15.95681804 4.10941448 16.94374166 1.07421875 17.09765625 C-3.62282468 16.73498435 -6.77562518 15.62742168 -10 12 C-10.3125 9.25 -10.3125 9.25 -10 7 C-9.79375 7.5775 -9.5875 8.155 -9.375 8.75 C-7.50249112 11.81410544 -5.03041481 13.15539968 -2 15 C-1.87625 13.865625 -1.7525 12.73125 -1.625 11.5625 C-1.41875 10.386875 -1.2125 9.21125 -1 8 C-0.34 7.67 0.32 7.34 1 7 C1.33 6.01 1.66 5.02 2 4 C-0.31 4.33 -2.62 4.66 -5 5 C-5.33 4.34 -5.66 3.68 -6 3 C-4.02 2.67 -2.04 2.34 0 2 C0 1.34 0 0.68 0 0 Z " fill="#E2D2DD" transform="translate(23,130)"/>
<path d="M0 0 C2.8125 -0.3125 2.8125 -0.3125 6 0 C7.625 2.25 7.625 2.25 9 5 C9.680625 5.5775 10.36125 6.155 11.0625 6.75 C13.92501014 10.07420532 14.30966824 13.74900967 15 18 C13.02 18.66 11.04 19.32 9 20 C7.68253667 17.41909233 6.37090383 14.83549542 5.0625 12.25 C4.68931641 11.52039062 4.31613281 10.79078125 3.93164062 10.0390625 C3.57392578 9.33007812 3.21621094 8.62109375 2.84765625 7.890625 C2.51773682 7.24125977 2.18781738 6.59189453 1.84790039 5.92285156 C0.98547884 3.96706921 0.45625821 2.08459306 0 0 Z " fill="#ECDAB3" transform="translate(60,22)"/>
<path d="M0 0 C1.98 0 3.96 0 6 0 C6.165 0.61875 6.33 1.2375 6.5 1.875 C8.3165682 4.44847161 9.01053858 4.40427399 12 5 C15.82638889 5.8125 15.82638889 5.8125 17.5625 7.6875 C18.37841288 12.00018235 17.40898986 15.68538973 16.125 19.8125 C13.03637646 22.99196541 9.80273789 22.93014626 5.49609375 23.34765625 C2.8384884 23.7431301 2.8384884 23.7431301 1.66015625 26.05859375 C1.44230469 26.69925781 1.22445312 27.33992188 1 28 C0.75 25.6875 0.75 25.6875 1 23 C4.07279915 19.55846496 7.58931908 19.49932237 12 19 C13.41577477 17.81575674 13.41577477 17.81575674 13.0625 14.4375 C13.041875 13.303125 13.02125 12.16875 13 11 C12.18595703 10.63648438 12.18595703 10.63648438 11.35546875 10.265625 C4.04963971 6.84307446 4.04963971 6.84307446 2 3 C2 2.34 2 1.68 2 1 C1.34 0.67 0.68 0.34 0 0 Z " fill="#6776B3" transform="translate(119,139)"/>
<path d="M0 0 C3.95403662 0.26360244 5.65370756 0.86143155 8.75 3.25 C11.41836411 7.25254616 11.5840238 10.54313299 10.75 15.25 C8.56840855 18.00569447 6.87822506 19.68588747 3.75 21.25 C-0.1579648 21.69408691 -1.99548146 21.38704844 -5.5 19.5 C-9.48026316 16.24342105 -9.48026316 16.24342105 -10.25 13.25 C-10.16804478 8.74246294 -9.73833209 6.8115819 -6.75 3.375 C-5.5125 2.323125 -5.5125 2.323125 -4.25 1.25 C-3.25 0.25 -3.25 0.25 0 0 Z M-6.25 4.25 C-7.83047165 6.97990559 -8.25 8.72825398 -8.25 11.875 C-7.3991875 14.54368356 -7.3991875 14.54368356 -4.375 16 C-2.35550391 16.80779844 -0.31344675 17.56218442 1.75 18.25 C0.76 18.58 -0.23 18.91 -1.25 19.25 C2.79622502 19.61980013 2.79622502 19.61980013 5.75 17.25 C6.41 17.25 7.07 17.25 7.75 17.25 C9.78595109 13.17809781 9.89719638 10.64758611 8.75 6.25 C8.09 5.26 7.43 4.27 6.75 3.25 C3.66634129 2.9997843 3.66634129 2.9997843 0.75 3.25 C0.75 3.91 0.75 4.57 0.75 5.25 C0.09 4.92 -0.57 4.59 -1.25 4.25 C-0.26 3.26 0.73 2.27 1.75 1.25 C-1.92718093 1.25 -3.32076189 2.07184858 -6.25 4.25 Z " fill="#E7D8E1" transform="translate(22.25,77.75)"/>
<path d="M0 0 C0.99 0.33 1.98 0.66 3 1 C4.1875 3.5625 4.1875 3.5625 5 6 C4.01 6.495 4.01 6.495 3 7 C5.31 7 7.62 7 10 7 C9.67 8.32 9.34 9.64 9 11 C8.34 11 7.68 11 7 11 C6.67 13.31 6.34 15.62 6 18 C3.50638429 16.79618552 1.31856917 15.54571278 -1 14 C-1 12.68 -1 11.36 -1 10 C-1.66 10 -2.32 10 -3 10 C-2.25 3.375 -2.25 3.375 0 0 Z " fill="#F69CA0" transform="translate(15,127)"/>
<path d="M0 0 C0.24954005 1.43410368 0.47392642 2.87260072 0.6875 4.3125 C0.81511719 5.11300781 0.94273438 5.91351563 1.07421875 6.73828125 C1 9 1 9 -0.25390625 10.80859375 C-2 12 -2 12 -5.625 11.75 C-9 11 -9 11 -10 10 C-10.58525605 2.74282499 -10.58525605 2.74282499 -8.375 -0.0625 C-5.25187355 -1.29531307 -3.20959534 -0.80239884 0 0 Z " fill="#E1CBA4" transform="translate(60,182)"/>
<path d="M0 0 C1.175625 0.9590625 1.175625 0.9590625 2.375 1.9375 C4.79539281 3.98142313 4.79539281 3.98142313 7 5 C6.24849699 10.51102204 6.24849699 10.51102204 5.03125 12.90625 C3.9092091 15.18433303 3.38616822 17.26718294 2.875 19.75 C2.70742187 20.54921875 2.53984375 21.3484375 2.3671875 22.171875 C2.24601562 22.77515625 2.12484375 23.3784375 2 24 C0.68 24.33 -0.64 24.66 -2 25 C-2.226875 23.948125 -2.45375 22.89625 -2.6875 21.8125 C-3.79360531 17.8402094 -5.88629885 15.70400363 -9 13 C-6.03 13 -3.06 13 0 13 C2.26496393 9.44328792 2.26496393 9.44328792 1.6875 7.0625 C1.460625 6.381875 1.23375 5.70125 1 5 C0.65939189 3.33480481 0.32441604 1.66842534 0 0 Z " fill="#6675B2" transform="translate(103,71)"/>
<path d="M0 0 C5.625 -0.25 5.625 -0.25 9 2 C8.85957123 3.64630328 8.71250671 5.29204179 8.5625 6.9375 C8.48128906 7.85402344 8.40007812 8.77054688 8.31640625 9.71484375 C8 12 8 12 7 13 C5.47480724 12.91062197 3.95318071 12.75462854 2.4375 12.5625 C1.61121094 12.46066406 0.78492187 12.35882813 -0.06640625 12.25390625 C-0.70449219 12.17011719 -1.34257813 12.08632812 -2 12 C-1.85831863 10.56208484 -1.71148957 9.1246763 -1.5625 7.6875 C-1.48128906 6.88699219 -1.40007812 6.08648437 -1.31640625 5.26171875 C-1 3 -1 3 0 0 Z " fill="#CAAB76" transform="translate(88,197)"/>
<path d="M0 0 C-3 2 -3 2 -5.10546875 2.32421875 C-5.73066406 2.54722656 -6.35585937 2.77023438 -7 3 C-7.88729812 5.19399444 -7.88729812 5.19399444 -8.3125 7.8125 C-9.53991126 12.59258497 -9.53991126 12.59258497 -11.671875 14.48046875 C-13.40107647 15.41295136 -15.19936479 16.21426827 -17 17 C-17.66 17.66 -18.32 18.32 -19 19 C-19.66 18.34 -20.32 17.68 -21 17 C-21 14.5625 -21 14.5625 -20 12 C-19.05125 11.566875 -18.1025 11.13375 -17.125 10.6875 C-13.17028916 8.55195614 -13.0049998 6.96241317 -11.6953125 2.8828125 C-11 1 -11 1 -9.25 -1.125 C-5.79417524 -2.46893185 -3.37287804 -1.23239775 0 0 Z " fill="#CDCFD2" transform="translate(121,154)"/>
<path d="M0 0 C2.97672584 1.77280561 5.42804007 3.85608015 7 7 C7.67660495 12.86390959 7.67660495 12.86390959 5.953125 15.7578125 C3.02250123 19.32627792 1.32898658 20.84665539 -3.25 21.375 C-8.19272958 20.88072704 -9.53828301 19.46171699 -13 16 C-14.57455739 12.85088521 -14.34799118 10.47991184 -14 7 C-10.42200413 0.99217111 -6.89711987 -0.68971199 0 0 Z M-9 3 C-9 3.66 -9 4.32 -9 5 C-9.99 5.33 -10.98 5.66 -12 6 C-12.59343628 11.90803198 -12.59343628 11.90803198 -9.8125 16.9375 C-6.91601149 19.06159157 -5.56864987 20 -2 20 C1.31704343 19.0915032 1.31704343 19.0915032 4 17 C5.03857875 13.51334276 5 10.64894497 5 7 C3.68 7 2.36 7 1 7 C1.66 6.67 2.32 6.34 3 6 C2.32828556 2.93107766 2.32828556 2.93107766 0.125 1.8125 C-3.58920691 0.39236206 -5.67291386 1.16436627 -9 3 Z " fill="#EAD2DA" transform="translate(205,78)"/>
<path d="M0 0 C2.80824575 1.15633649 4.83571168 2.90366839 7.125 4.875 C6.81881595 8.54920866 6.36728216 9.65635513 3.5625 12.1875 C2.758125 12.744375 1.95375 13.30125 1.125 13.875 C-1.515 11.235 -4.155 8.595 -6.875 5.875 C-3.81048387 -0.25403226 -3.81048387 -0.25403226 0 0 Z " fill="#E5CFA3" transform="translate(177.875,172.125)"/>
<path d="M0 0 C1.64163193 3.28326386 0.11343864 6.52871621 -0.75 9.9375 C-0.92015625 10.66646484 -1.0903125 11.39542969 -1.265625 12.14648438 C-2.90806453 18.73435763 -2.90806453 18.73435763 -6 21 C-6.99 20.34 -7.98 19.68 -9 19 C-9.328125 16.90625 -9.328125 16.90625 -9.25 14.5 C-9.23453125 13.7059375 -9.2190625 12.911875 -9.203125 12.09375 C-9 10 -9 10 -8 8 C-8.33 7.34 -8.66 6.68 -9 6 C-6.45543849 3.03134491 -3.51005335 1.6380249 0 0 Z " fill="#F7EEDD" transform="translate(179,34)"/>
<path d="M0 0 C3 2 3 2 3.875 5.3125 C4.01771819 9.52268668 3.62844582 10.77803416 1 14 C-0.04556964 14.91553686 -1.10904675 15.81093729 -2.1875 16.6875 C-3.115625 17.450625 -4.04375 18.21375 -5 19 C-5 19.66 -5 20.32 -5 21 C-5.93972656 21.19916016 -5.93972656 21.19916016 -6.8984375 21.40234375 C-8.12433594 21.66724609 -8.12433594 21.66724609 -9.375 21.9375 C-10.18710938 22.11152344 -10.99921875 22.28554687 -11.8359375 22.46484375 C-14.029463 22.92330693 -14.029463 22.92330693 -16 24 C-14.58911589 20.69346646 -12.94468631 18.8452183 -10.1875 16.5625 C-9.47851562 15.9540625 -8.76953125 15.345625 -8.0390625 14.71875 C-6.38652416 13.32580581 -4.72574635 11.94264059 -3.0625 10.5625 C-0.21054032 7.01915616 -0.22857032 4.49521633 0 0 Z " fill="#D1D3D4" transform="translate(162,81)"/>
<path d="M0 0 C2 2 2 2 2.375 4.4375 C2 7 2 7 0.25 8.8125 C-2 10 -2 10 -6 10 C-5.84329834 10.62044189 -5.68659668 11.24088379 -5.52514648 11.88012695 C-4.82079114 14.68887206 -4.12901875 17.5005683 -3.4375 20.3125 C-3.19064453 21.28896484 -2.94378906 22.26542969 -2.68945312 23.27148438 C-2.46064453 24.20927734 -2.23183594 25.14707031 -1.99609375 26.11328125 C-1.78138428 26.97735596 -1.5666748 27.84143066 -1.34545898 28.73168945 C-1 31 -1 31 -2 34 C-4.75899371 29.97710973 -5.74325182 26.40194342 -6.625 21.625 C-6.86476562 20.35914062 -7.10453125 19.09328125 -7.3515625 17.7890625 C-7.96627752 14.19705303 -8.5056082 10.60999295 -9 7 C-7.6078125 6.6596875 -7.6078125 6.6596875 -6.1875 6.3125 C-2.49280817 4.7911563 -1.67517239 3.53647504 0 0 Z " fill="#CDCFD2" transform="translate(137,93)"/>
<path d="M0 0 C0.66 0 1.32 0 2 0 C4.31967775 4.39046303 6 7.8397047 6 12.875 C4.85551025 16.45153048 4.17193036 17.14698226 1 19 C-5.19634749 19.95472424 -10.66279148 19.46197309 -16 16 C-13.10087628 15.03362543 -11.59813881 14.97279153 -8.625 15.125 C-5.70249872 15.12976754 -3.77341626 14.93063763 -0.9375 14.0625 C1.37593811 11.59980782 1.31621243 10.78675976 1.375 7.5 C1.25273399 4.6784766 0.90399059 2.71197177 0 0 Z " fill="#C8CBD1" transform="translate(154,120)"/>
<path d="M0 0 C0.33 0.66 0.66 1.32 1 2 C0.67 2.66 0.34 3.32 0 4 C-1.65 3.67 -3.3 3.34 -5 3 C-4.67 4.65 -4.34 6.3 -4 8 C-3.01 8 -2.02 8 -1 8 C-0.67 7.34 -0.34 6.68 0 6 C0.99 6 1.98 6 3 6 C2.6875 8.375 2.6875 8.375 2 11 C-1.24153166 13.1610211 -2.23692901 13.64247553 -6 13 C-8.375 10.8125 -8.375 10.8125 -10 8 C-9.93107581 5.10518392 -9.38861317 3.59314642 -7.8125 1.1875 C-5.20638339 -0.51995571 -3.0400645 -0.20267097 0 0 Z " fill="#D8BE91" transform="translate(151,192)"/>
<path d="M0 0 C1.32 0.33 2.64 0.66 4 1 C4 2.32 4 3.64 4 5 C5.65 4.67 7.3 4.34 9 4 C9 8 9 8 7.75 9.8125 C7.1725 10.204375 6.595 10.59625 6 11 C4.0625 10.625 4.0625 10.625 2 10 C1.34 10.185625 0.68 10.37125 0 10.5625 C-2.62473206 11.13666014 -3.75722562 10.36168444 -6 9 C-5.75 7.125 -5.75 7.125 -5 5 C-3.68352881 4.30062468 -2.34977849 3.63270867 -1 3 C-0.67 2.01 -0.34 1.02 0 0 Z " fill="#FF7373" transform="translate(201,134)"/>
<path d="M0 0 C3.31925764 2.80860262 4.85094546 4.41371879 5.9375 8.6875 C5.958125 9.780625 5.97875 10.87375 6 12 C4 14 4 14 1.75 14.5625 C-2.07975312 13.77914141 -3.48927595 11.72811668 -5.9609375 8.82421875 C-6.30382812 8.22222656 -6.64671875 7.62023437 -7 7 C-6.67 6.01 -6.34 5.02 -6 4 C-1.75177626 4.47202486 0.19989709 6.96655518 3 10 C2.6390625 9.51789063 2.278125 9.03578125 1.90625 8.5390625 C1.4421875 7.90742188 0.978125 7.27578125 0.5 6.625 C-0.19609375 5.68527344 -0.19609375 5.68527344 -0.90625 4.7265625 C-2 3 -2 3 -2 1 C-1.34 0.67 -0.68 0.34 0 0 Z " fill="#E3CB9B" transform="translate(168,179)"/>
<path d="M0 0 C0.66 0 1.32 0 2 0 C3.50625309 5.12501676 3.18426165 10.32706245 3.1875 15.625 C3.19974609 16.6871875 3.21199219 17.749375 3.22460938 18.84375 C3.22750977 20.36355469 3.22750977 20.36355469 3.23046875 21.9140625 C3.23457764 22.8417041 3.23868652 23.7693457 3.24291992 24.72509766 C3 27 3 27 1 29 C-1.625 28.625 -1.625 28.625 -4 28 C-4.79953138 24.71303767 -5.09658936 23.28976808 -4 20 C-2.68 19.34 -1.36 18.68 0 18 C0 12.06 0 6.12 0 0 Z " fill="#3B469C" transform="translate(81,126)"/>
<path d="M0 0 C0 1.32 0 2.64 0 4 C-2.31 4.33 -4.62 4.66 -7 5 C-7.33 5.99 -7.66 6.98 -8 8 C-8.33 6.35 -8.66 4.7 -9 3 C-10.32 3 -11.64 3 -13 3 C-12.7834375 3.95261719 -12.566875 4.90523437 -12.34375 5.88671875 C-11.92609375 7.76810547 -11.92609375 7.76810547 -11.5 9.6875 C-11.2215625 10.92886719 -10.943125 12.17023437 -10.65625 13.44921875 C-10.10645874 16.42398218 -9.86204295 18.99368602 -10 22 C-8.35 22 -6.7 22 -5 22 C-5 22.33 -5 22.66 -5 23 C-6.98 23 -8.96 23 -11 23 C-12.32 16.07 -13.64 9.14 -15 2 C-3.375 -1.125 -3.375 -1.125 0 0 Z " fill="#CEA85B" transform="translate(100,10)"/>
<path d="M0 0 C3.26737303 3.26737303 3.95672896 6.83168198 4.125 11.375 C4.08375 12.24125 4.0425 13.1075 4 14 C2.02 13.34 0.04 12.68 -2 12 C-2 12.66 -2 13.32 -2 14 C-3.32 14 -4.64 14 -6 14 C-4.50829734 9.0276578 -2.39542583 4.58154261 0 0 Z " fill="#E5D0A8" transform="translate(104,197)"/>
<path d="M0 0 C3.76687864 1.88343932 4.79421646 2.69132469 7 6 C5.35 6.33 3.7 6.66 2 7 C2 8.32 2 9.64 2 11 C1.34 10.67 0.68 10.34 0 10 C0 9.34 0 8.68 0 8 C-1.65 9.32 -3.3 10.64 -5 12 C-5.66 10.68 -6.32 9.36 -7 8 C-4.69 5.36 -2.38 2.72 0 0 Z " fill="#F2E7D1" transform="translate(46,172)"/>
<path d="M0 0 C0.66 0 1.32 0 2 0 C3.73739011 3.47478021 3.59680392 7.20931136 3 11 C0.56246638 14.09632649 -1.73450731 15.82300487 -5 18 C-5.66 17.67 -6.32 17.34 -7 17 C-7 15.68 -7 14.36 -7 13 C-6.21625 12.443125 -5.4325 11.88625 -4.625 11.3125 C-0.94211529 8.06805394 -0.67541035 4.71779169 0 0 Z " fill="#CDCFD2" transform="translate(90,61)"/>
<path d="M0 0 C6.1112924 1.0388092 12.07704464 2.15730278 18 4 C17.67 5.32 17.34 6.64 17 8 C9.74 6.68 2.48 5.36 -5 4 C-3.68 3.67 -2.36 3.34 -1 3 C-0.67 2.01 -0.34 1.02 0 0 Z " fill="#CB961B" transform="translate(128,1)"/>
<path d="M0 0 C1.32 0 2.64 0 4 0 C4 2.97 4 5.94 4 9 C5.65 9.33 7.3 9.66 9 10 C9 10.99 9 11.98 9 13 C6.03 13 3.06 13 0 13 C0 8.71 0 4.42 0 0 Z " fill="#B88C44" transform="translate(112,199)"/>
<path d="M0 0 C1.32 0 2.64 0 4 0 C4.33 2.97 4.66 5.94 5 9 C6.65 9 8.3 9 10 9 C10 9.99 10 10.98 10 12 C5.545 12.495 5.545 12.495 1 13 C0.67 8.71 0.34 4.42 0 0 Z " fill="#C7A15C" transform="translate(122,198)"/>
<path d="M0 0 C6 1 6 1 8 2 C8 2.66 8 3.32 8 4 C6.35 3.67 4.7 3.34 3 3 C3 8.28 3 13.56 3 19 C2.01 19.33 1.02 19.66 0 20 C0 13.4 0 6.8 0 0 Z " fill="#D2D4D5" transform="translate(83,93)"/>
<path d="M0 0 C3.0625 0.1875 3.0625 0.1875 5.0625 2.1875 C5.1875 5.8125 5.1875 5.8125 5.0625 9.1875 C4.4025 9.1875 3.7425 9.1875 3.0625 9.1875 C3.0625 7.8675 3.0625 6.5475 3.0625 5.1875 C2.0725 5.5175 1.0825 5.8475 0.0625 6.1875 C-0.2675 7.8375 -0.5975 9.4875 -0.9375 11.1875 C-3 9.5625 -3 9.5625 -4.9375 7.1875 C-4.53172111 0.28925879 -4.53172111 0.28925879 0 0 Z " fill="#C7CAD1" transform="translate(153.9375,106.8125)"/>
<path d="M0 0 C0.99 0 1.98 0 3 0 C3.99 1.98 4.98 3.96 6 6 C7.65 6 9.3 6 11 6 C10.875 7.875 10.875 7.875 10 10 C6.9375 11.25 6.9375 11.25 4 12 C3.13058506 10.76055724 2.27994543 9.50792941 1.4375 8.25 C0.96183594 7.55390625 0.48617187 6.8578125 -0.00390625 6.140625 C-1 4 -1 4 -0.65234375 1.734375 C-0.43707031 1.16203125 -0.22179687 0.5896875 0 0 Z " fill="#E4CC9E" transform="translate(154,188)"/>
<path d="M0 0 C1.65 0.33 3.3 0.66 5 1 C5 1.66 5 2.32 5 3 C5.66 3 6.32 3 7 3 C7 3.66 7 4.32 7 5 C6.01 5.495 6.01 5.495 5 6 C4.09656316 7.88263881 4.09656316 7.88263881 3.375 10.0625 C2.98441406 11.16271484 2.98441406 11.16271484 2.5859375 12.28515625 C2.39257812 12.85105469 2.19921875 13.41695312 2 14 C0.68 13.67 -0.64 13.34 -2 13 C-1.49287967 9.28111761 -0.88391785 6.26545761 1 3 C0.34 3 -0.32 3 -1 3 C-0.67 2.01 -0.34 1.02 0 0 Z " fill="#DDC28F" transform="translate(78,193)"/>
<path d="M0 0 C1.11328125 1.53515625 1.11328125 1.53515625 2 4 C1.51508779 6.58325959 0.93817878 8.93444428 0.1875 11.4375 C-1.80707518 18.62193996 -2.74411638 25.52819822 -3 33 C-3.33 33 -3.66 33 -4 33 C-5.39852048 21.43180346 -5.35965366 10.71930732 0 0 Z " fill="#C89318" transform="translate(40,83)"/>
<path d="M0 0 C-0.20625 0.7425 -0.4125 1.485 -0.625 2.25 C-1.05334069 5.39116506 -0.51935145 6.31879156 1 9 C1 9.99 1 10.98 1 12 C0.01 12.33 -0.98 12.66 -2 13 C-4.21368294 10.78631706 -5.86552921 9.06983375 -6.265625 5.88671875 C-6.25166986 3.92253213 -6.13286356 1.9597375 -6 0 C-3 -1 -3 -1 0 0 Z " fill="#FE5E5E" transform="translate(199,84)"/>
<path d="M0 0 C0.66 0 1.32 0 2 0 C2.90413673 3.83724172 3.10576898 7.37502274 3.0625 11.3125 C3.05347656 12.38113281 3.04445313 13.44976562 3.03515625 14.55078125 C3.02355469 15.35902344 3.01195312 16.16726562 3 17 C2.01 17.33 1.02 17.66 0 18 C-0.88809097 14.19389583 -1.1346183 10.65502933 -1.125 6.75 C-1.12757812 5.69296875 -1.13015625 4.6359375 -1.1328125 3.546875 C-1 1 -1 1 0 0 Z " fill="#DCA625" transform="translate(1,110)"/>
<path d="M0 0 C1.89575251 -0.02721176 3.79161979 -0.04649136 5.6875 -0.0625 C6.74324219 -0.07410156 7.79898438 -0.08570313 8.88671875 -0.09765625 C11.72410262 -0.00865425 14.2438919 0.35060162 17 1 C16.67 1.99 16.34 2.98 16 4 C14.10424749 4.02721176 12.20838021 4.04649136 10.3125 4.0625 C8.72888672 4.07990234 8.72888672 4.07990234 7.11328125 4.09765625 C4.27589738 4.00865425 1.7561081 3.64939838 -1 3 C-0.67 2.01 -0.34 1.02 0 0 Z " fill="#DCA625" transform="translate(111,0)"/>
<path d="M0 0 C4.69268293 1.64878049 4.69268293 1.64878049 6.3125 3.5 C8.63545806 5.5648516 10.64309991 5.72188587 13.6875 6.1875 C14.68136719 6.34605469 15.67523438 6.50460938 16.69921875 6.66796875 C17.83810547 6.83232422 17.83810547 6.83232422 19 7 C18.01 7.66 17.02 8.32 16 9 C15.67 9.66 15.34 10.32 15 11 C6.22013089 9.8905612 6.22013089 9.8905612 3 6.0625 C1 3 1 3 0 0 Z " fill="#E3E4EA" transform="translate(133,132)"/>
<path d="M0 0 C0.33 0.66 0.66 1.32 1 2 C1.66 2 2.32 2 3 2 C3 2.66 3 3.32 3 4 C3.99 4.33 4.98 4.66 6 5 C6 5.66 6 6.32 6 7 C7.32 7.33 8.64 7.66 10 8 C10.33 6.68 10.66 5.36 11 4 C11 5.65 11 7.3 11 9 C8.39417629 9.93065133 7.35801776 10.14917407 4.75 9.0625 C4.1725 8.711875 3.595 8.36125 3 8 C2.67 8.99 2.34 9.98 2 11 C1.34 10.67 0.68 10.34 0 10 C0 11.65 0 13.3 0 15 C-0.33 15 -0.66 15 -1 15 C-1 12.69 -1 10.38 -1 8 C-0.34 7.67 0.32 7.34 1 7 C1.33 6.01 1.66 5.02 2 4 C-0.31 4.33 -2.62 4.66 -5 5 C-5.33 4.34 -5.66 3.68 -6 3 C-4.02 2.67 -2.04 2.34 0 2 C0 1.34 0 0.68 0 0 Z " fill="#FCEAEB" transform="translate(23,130)"/>
<path d="M0 0 C8.415 1.98 8.415 1.98 17 4 C15.68 5.32 14.36 6.64 13 8 C9.984375 7.734375 9.984375 7.734375 6.75 6.75 C5.67234375 6.43546875 4.5946875 6.1209375 3.484375 5.796875 C2.66453125 5.53390625 1.8446875 5.2709375 1 5 C0.67 3.35 0.34 1.7 0 0 Z " fill="#D9A320" transform="translate(75,214)"/>
<path d="M0 0 C2.5 0.125 2.5 0.125 3.5 1.125 C3.25 4.5625 3.25 4.5625 2.5 8.125 C1.51 8.785 0.52 9.445 -0.5 10.125 C-0.5 9.135 -0.5 8.145 -0.5 7.125 C-1.82 6.465 -3.14 5.805 -4.5 5.125 C-3.38091354 0.16904568 -3.38091354 0.16904568 0 0 Z " fill="#6474B2" transform="translate(81.5,60.875)"/>
<path d="M0 0 C0.66 0.33 1.32 0.66 2 1 C2.02689216 2.47906892 2.04634621 3.95827483 2.0625 5.4375 C2.07410156 6.26121094 2.08570312 7.08492187 2.09765625 7.93359375 C2 10 2 10 1 11 C-0.99958364 11.04080783 -3.00045254 11.04254356 -5 11 C-5 10.34 -5 9.68 -5 9 C-5.66 9 -6.32 9 -7 9 C-6.34 7.02 -5.68 5.04 -5 3 C-4.67 3 -4.34 3 -4 3 C-4 4.65 -4 6.3 -4 8 C-3.01 8 -2.02 8 -1 8 C-1.20625 7.4225 -1.4125 6.845 -1.625 6.25 C-2.08661261 3.48032433 -1.42944945 2.35438733 0 0 Z " fill="#DFC9A2" transform="translate(94,199)"/>
<path d="M0 0 C0.33 0.99 0.66 1.98 1 3 C0.071875 3.4125 -0.85625 3.825 -1.8125 4.25 C-4.88054681 5.93441786 -6.19040465 7.08454083 -8 10 C-8.66 9.34 -9.32 8.68 -10 8 C-9.84076801 4.89497628 -9.42490203 3.44007711 -7.25 1.1875 C-4.62847443 -0.19608294 -2.92325122 -0.24360427 0 0 Z " fill="#C9CCD1" transform="translate(121,140)"/>
<path d="M0 0 C1.32 0.33 2.64 0.66 4 1 C3.67 1.99 3.34 2.98 3 4 C2.34 4 1.68 4 1 4 C1 4.66 1 5.32 1 6 C2.65 5.67 4.3 5.34 6 5 C5.3125 6.9375 5.3125 6.9375 4 9 C1.5625 9.9375 1.5625 9.9375 -1 10 C-2.8125 8.5625 -2.8125 8.5625 -4 7 C-2.68 4.69 -1.36 2.38 0 0 Z " fill="#D7CCCC" transform="translate(142,67)"/>
<path d="M0 0 C1.06669922 0.00322266 2.13339844 0.00644531 3.23242188 0.00976562 C4.88661133 0.02233398 4.88661133 0.02233398 6.57421875 0.03515625 C7.69634766 0.03966797 8.81847656 0.04417969 9.97460938 0.04882812 C12.73703385 0.06058312 15.49934873 0.07701548 18.26171875 0.09765625 C18.26171875 0.42765625 18.26171875 0.75765625 18.26171875 1.09765625 C14.92986122 1.46670826 11.59614389 1.81513896 8.26171875 2.16015625 C7.32714844 2.26392578 6.39257812 2.36769531 5.4296875 2.47460938 C-0.19295979 3.04473795 -5.16153833 3.03807398 -10.73828125 2.09765625 C-10.73828125 1.76765625 -10.73828125 1.43765625 -10.73828125 1.09765625 C-7.09180065 0.25660845 -3.73877218 -0.01999343 0 0 Z " fill="#C38F1B" transform="translate(105.73828125,34.90234375)"/>
<path d="M0 0 C1.8871875 0.061875 1.8871875 0.061875 3.8125 0.125 C3.8125 1.445 3.8125 2.765 3.8125 4.125 C2.53375 4.24875 1.255 4.3725 -0.0625 4.5 C-3.53540936 4.81542399 -3.53540936 4.81542399 -6.1875 7.125 C-6.8475 7.125 -7.5075 7.125 -8.1875 7.125 C-7.875 4.75 -7.875 4.75 -7.1875 2.125 C-4.09861478 0.06574319 -3.47814073 -0.1140374 0 0 Z " fill="#EACF93" transform="translate(51.1875,30.875)"/>
<path d="M0 0 C0.75 1.75 0.75 1.75 1 4 C-0.85055798 6.23343204 -2.40383083 7.70191542 -5 9 C-10.42307692 9.46153846 -10.42307692 9.46153846 -12.875 7.5 C-13.24625 7.005 -13.6175 6.51 -14 6 C-13.67 5.01 -13.34 4.02 -13 3 C-10.03 3.495 -10.03 3.495 -7 4 C-7 4.66 -7 5.32 -7 6 C-5.68 5.01 -4.36 4.02 -3 3 C-3 3.66 -3 4.32 -3 5 C-2.34 5 -1.68 5 -1 5 C-0.67 3.35 -0.34 1.7 0 0 Z " fill="#E8C5CD" transform="translate(31,90)"/>
<path d="M0 0 C0.99 0 1.98 0 3 0 C3.05422947 1.4370809 3.09289723 2.87475462 3.125 4.3125 C3.14820313 5.11300781 3.17140625 5.91351563 3.1953125 6.73828125 C3 9 3 9 1 12 C0.01 12 -0.98 12 -2 12 C-1.85904936 10.3745692 -1.71207913 8.74965949 -1.5625 7.125 C-1.48128906 6.22007812 -1.40007812 5.31515625 -1.31640625 4.3828125 C-1 2 -1 2 0 0 Z " fill="#CE9817" transform="translate(220,124)"/>
<path d="M0 0 C3.40843742 2.88406243 4.86591384 4.3708265 5.8125 8.8125 C5.9053125 10.3903125 5.9053125 10.3903125 6 12 C5.01 12.495 5.01 12.495 4 13 C4 12.34 4 11.68 4 11 C3.01 10.67 2.02 10.34 1 10 C1.66 10 2.32 10 3 10 C2.6390625 9.51789063 2.278125 9.03578125 1.90625 8.5390625 C1.4421875 7.90742188 0.978125 7.27578125 0.5 6.625 C0.0359375 5.99851563 -0.428125 5.37203125 -0.90625 4.7265625 C-2 3 -2 3 -2 1 C-1.34 0.67 -0.68 0.34 0 0 Z " fill="#D3B47B" transform="translate(168,179)"/>
<path d="M0 0 C0 0.99 0 1.98 0 3 C0.763125 2.773125 1.52625 2.54625 2.3125 2.3125 C5 2 5 2 6.8125 3.0625 C8.46306037 5.75551955 8.20628638 7.90570428 8 11 C8.99 11.33 9.98 11.66 11 12 C11 12.99 11 13.98 11 15 C8.59260552 14.03704221 7.25157752 13.38398674 5.8125 11.1875 C4.92912413 8.80918034 4.41664625 6.49987748 4 4 C2.02 4.33 0.04 4.66 -2 5 C-2.66 3.68 -3.32 2.36 -4 1 C-2 0 -2 0 0 0 Z " fill="#CA9D43" transform="translate(163,42)"/>
<path d="M0 0 C0.66 0 1.32 0 2 0 C3.462958 2.925916 3.44523109 4.75617347 3 8 C1.16897758 10.05522925 -0.72916546 11.3914922 -3 13 C-3.38281159 7.76824163 -2.21854707 4.62197306 0 0 Z " fill="#CED1D3" transform="translate(163,107)"/>
<path d="M0 0 C0.33 0 0.66 0 1 0 C1.05800828 3.60409919 1.09359869 7.20807851 1.125 10.8125 C1.14175781 11.83666016 1.15851563 12.86082031 1.17578125 13.91601562 C1.18222656 14.89892578 1.18867188 15.88183594 1.1953125 16.89453125 C1.20578613 17.80050049 1.21625977 18.70646973 1.22705078 19.63989258 C1 22 1 22 -1 25 C-1.97963374 21.82662906 -2.00148074 19.30840242 -1.66015625 16.015625 C-1.56669922 15.08105469 -1.47324219 14.14648438 -1.37695312 13.18359375 C-1.27318359 12.21550781 -1.16941406 11.24742188 -1.0625 10.25 C-0.96259766 9.26644531 -0.86269531 8.28289062 -0.75976562 7.26953125 C-0.51267098 4.84565041 -0.25920287 2.42261093 0 0 Z " fill="#DBA10D" transform="translate(188,103)"/>
<path d="M0 0 C0.33 0 0.66 0 1 0 C1.50505263 2.89503383 2.0042022 5.79087953 2.5 8.6875 C2.64308594 9.50412109 2.78617188 10.32074219 2.93359375 11.16210938 C3.61165962 15.14978248 4.19858392 18.93730404 4 23 C3.34 23 2.68 23 2 23 C0.04596958 15.27111181 -0.22428282 7.94957992 0 0 Z " fill="#D79E0F" transform="translate(35,108)"/>
<path d="M0 0 C2.475 0.99 2.475 0.99 5 2 C4 5 4 5 1 7 C-0.32 7 -1.64 7 -3 7 C-3 5.35 -3 3.7 -3 2 C-2.34 2 -1.68 2 -1 2 C-0.67 1.34 -0.34 0.68 0 0 Z " fill="#FF1111" transform="translate(26,138)"/>
<path d="M0 0 C2.64 0 5.28 0 8 0 C7.625 2.4375 7.625 2.4375 7 5 C6.01 5.495 6.01 5.495 5 6 C5 5.34 5 4.68 5 4 C4.34 4 3.68 4 3 4 C2.67 4.66 2.34 5.32 2 6 C1.34 5.34 0.68 4.68 0 4 C0 2.68 0 1.36 0 0 Z " fill="#FF0D0D" transform="translate(198,126)"/>
<path d="M0 0 C2.31 0 4.62 0 7 0 C7.33 0.99 7.66 1.98 8 3 C7.01 4.485 7.01 4.485 6 6 C4.02 5.34 2.04 4.68 0 4 C0 2.68 0 1.36 0 0 Z " fill="#FF0C0C" transform="translate(20,126)"/>
<path d="M0 0 C3 1 3 1 4 3 C4.46537396 9.39889197 4.46537396 9.39889197 2.5 11.9375 C2.005 12.288125 1.51 12.63875 1 13 C1.33 11.02 1.66 9.04 2 7 C1.34 6.67 0.68 6.34 0 6 C0.66 5.01 1.32 4.02 2 3 C-0.31 3.66 -2.62 4.32 -5 5 C-3.625 3.5 -3.625 3.5 -2 2 C-1.34 2 -0.68 2 0 2 C0 1.34 0 0.68 0 0 Z " fill="#F0C6CB" transform="translate(208,82)"/>
<path d="M0 0 C0.99 0 1.98 0 3 0 C4.125 5.625 4.125 5.625 3 9 C1.35 9 -0.3 9 -2 9 C-1.34 6.03 -0.68 3.06 0 0 Z " fill="#DAC8AF" transform="translate(71,191)"/>
<path d="M0 0 C0.99 0 1.98 0 3 0 C3.33 2.64 3.66 5.28 4 8 C1.03 7.505 1.03 7.505 -2 7 C-2 3.89448334 -1.4606285 2.64738916 0 0 Z " fill="#FE0909" transform="translate(29,130)"/>
<path d="M0 0 C0.66 0 1.32 0 2 0 C2.33 0.99 2.66 1.98 3 3 C-0.96 4.98 -0.96 4.98 -5 7 C-6.32 5.68 -7.64 4.36 -9 3 C-8.43410156 2.86722656 -7.86820312 2.73445313 -7.28515625 2.59765625 C-6.18494141 2.33275391 -6.18494141 2.33275391 -5.0625 2.0625 C-4.33160156 1.88847656 -3.60070312 1.71445313 -2.84765625 1.53515625 C-1.00030102 1.16112431 -1.00030102 1.16112431 0 0 Z " fill="#C0C3CD" transform="translate(100,99)"/>
<path d="M0 0 C0.33 0.66 0.66 1.32 1 2 C0.67 2.66 0.34 3.32 0 4 C-1.65 3.67 -3.3 3.34 -5 3 C-5 4.65 -5 6.3 -5 8 C-5.66 7.67 -6.32 7.34 -7 7 C-7.625 3.9375 -7.625 3.9375 -8 1 C-5.29120665 -0.35439668 -2.99066732 -0.06501451 0 0 Z " fill="#CCAC76" transform="translate(151,192)"/>
<path d="M0 0 C0.556875 0.639375 1.11375 1.27875 1.6875 1.9375 C5.00940579 4.90028084 7.66152043 5 12 5 C14.01151741 4.36893571 16.01363702 3.70626239 18 3 C17.0625 4.9375 17.0625 4.9375 15 7 C10.25418853 8.49818754 6.94714824 8.44864917 2.4375 6.3125 C1.633125 5.549375 0.82875 4.78625 0 4 C0 2.68 0 1.36 0 0 Z " fill="#E6DAE3" transform="translate(193,139)"/>
<path d="M0 0 C1.65 0.33 3.3 0.66 5 1 C3.95125002 3.62187494 3.35068687 4.79371361 0.875 6.25 C0.25625 6.4975 -0.3625 6.745 -1 7 C-1.33 5.35 -1.66 3.7 -2 2 C-1.34 2 -0.68 2 0 2 C0 1.34 0 0.68 0 0 Z " fill="#FF0C0C" transform="translate(206,138)"/>
<path d="M0 0 C1.65 0 3.3 0 5 0 C5 0.66 5 1.32 5 2 C5.66 2 6.32 2 7 2 C6.67 3.65 6.34 5.3 6 7 C3.50638429 5.79618552 1.31856917 4.54571278 -1 3 C-0.67 2.01 -0.34 1.02 0 0 Z " fill="#FF0A0A" transform="translate(15,138)"/>
<path d="M0 0 C1.9375 0.3125 1.9375 0.3125 4 1 C4.33 1.99 4.66 2.98 5 4 C4.01 4.495 4.01 4.495 3 5 C3.33 5.66 3.66 6.32 4 7 C2.35 7.33 0.7 7.66 -1 8 C-0.67 5.36 -0.34 2.72 0 0 Z " fill="#FF0404" transform="translate(194,130)"/>
<path d="M0 0 C0 3 0 3 -0.5625 6.3125 C-0.98426087 9.86734159 -0.76220752 12.52772132 0 16 C-2.28030304 14.28977272 -3.7979461 12.94809908 -4.40625 10.09375 C-4.57732955 6.27297332 -4.44990102 4.56237628 -2 1.5 C-1.34 1.005 -0.68 0.51 0 0 Z " fill="#6574B2" transform="translate(74,56)"/>
<path d="M0 0 C0.66 0 1.32 0 2 0 C2 2.97 2 5.94 2 9 C3.65 9 5.3 9 7 9 C7 9.66 7 10.32 7 11 C4.69 11 2.38 11 0 11 C0 7.37 0 3.74 0 0 Z " fill="#FBF5EB" transform="translate(113,200)"/>
<path d="M0 0 C1.32 0 2.64 0 4 0 C3.75 2.375 3.75 2.375 3 5 C0.9375 6.3125 0.9375 6.3125 -1 7 C-1.625 4.625 -1.625 4.625 -2 2 C-1.34 1.34 -0.68 0.68 0 0 Z " fill="#453869" transform="translate(55,184)"/>
<path d="M0 0 C1.9375 0.3125 1.9375 0.3125 4 1 C4.33 1.99 4.66 2.98 5 4 C4.01 4.495 4.01 4.495 3 5 C3.33 5.66 3.66 6.32 4 7 C2.02 7 0.04 7 -2 7 C-1.34 4.69 -0.68 2.38 0 0 Z " fill="#FF0404" transform="translate(15,129)"/>
<path d="M0 0 C0.33 0.66 0.66 1.32 1 2 C1.99 2 2.98 2 4 2 C3.67 6.62 3.34 11.24 3 16 C2.67 16 2.34 16 2 16 C1.66104344 14.27192682 1.32908475 12.54248026 1 10.8125 C0.814375 9.84957031 0.62875 8.88664062 0.4375 7.89453125 C0.03122388 5.2065794 -0.07933572 2.71228981 0 0 Z " fill="#C6921B" transform="translate(217,82)"/>
<path d="M0 0 C0 0.66 0 1.32 0 2 C-6.625 6 -6.625 6 -10 6 C-8.20404732 1.26521567 -5.07984355 -1.69328118 0 0 Z " fill="#FE0909" transform="translate(208,82)"/>
<path d="M0 0 C2.31 0.33 4.62 0.66 7 1 C7 1.66 7 2.32 7 3 C3.37 3.66 -0.26 4.32 -4 5 C-4 4.01 -4 3.02 -4 2 C-2.68 2 -1.36 2 0 2 C0 1.34 0 0.68 0 0 Z " fill="#CB9618" transform="translate(86,3)"/>
<path d="M0 0 C1.32 0.33 2.64 0.66 4 1 C4.33 2.98 4.66 4.96 5 7 C3.35 7 1.7 7 0 7 C0.33 6.34 0.66 5.68 1 5 C0.01 4.34 -0.98 3.68 -2 3 C-1.34 2.01 -0.68 1.02 0 0 Z " fill="#FF0505" transform="translate(207,129)"/>
<path d="M0 0 C2.875 -0.125 2.875 -0.125 6 0 C8 2 8 2 8.125 5.625 C8.08375 6.73875 8.0425 7.8525 8 9 C7.34 9 6.68 9 6 9 C5.34 7.02 4.68 5.04 4 3 C2.35 2.67 0.7 2.34 -1 2 C-0.67 1.34 -0.34 0.68 0 0 Z " fill="#6978B4" transform="translate(151,107)"/>
<path d="M0 0 C0.886875 0.804375 1.77375 1.60875 2.6875 2.4375 C5.43369338 4.70134091 7.33899099 5.90847477 11 6 C14.24236568 5.14228658 14.24236568 5.14228658 17 4 C14.64637063 7.01264559 13.45663946 7.92389342 9.625 8.5625 C4.85256357 7.82194952 3.30597479 6.46724185 0 3 C0 2.01 0 1.02 0 0 Z " fill="#E3DEE8" transform="translate(192,91)"/>
<path d="M0 0 C1.65 0 3.3 0 5 0 C6.15837626 4.05431692 5.83691257 6.21812119 4 10 C3.34 10 2.68 10 2 10 C2.33 7.36 2.66 4.72 3 2 C2.01 1.67 1.02 1.34 0 1 C0 0.67 0 0.34 0 0 Z " fill="#FE6666" transform="translate(26,85)"/>
<path d="M0 0 C-1.40844718 3.21524305 -3.10344786 5.32183868 -5.625 7.75 C-6.57246094 8.67039063 -6.57246094 8.67039063 -7.5390625 9.609375 C-8.02117187 10.06828125 -8.50328125 10.5271875 -9 11 C-9.66 10.34 -10.32 9.68 -11 9 C-9.54782324 7.49403892 -8.08807139 5.99537896 -6.625 4.5 C-5.40683594 3.24703125 -5.40683594 3.24703125 -4.1640625 1.96875 C-2 0 -2 0 0 0 Z " fill="#D99E04" transform="translate(172,160)"/>
<path d="M0 0 C0.66 0.99 1.32 1.98 2 3 C2.66 2.67 3.32 2.34 4 2 C4 3.65 4 5.3 4 7 C-0.75 6.125 -0.75 6.125 -3 5 C-2.625 3.0625 -2.625 3.0625 -2 1 C-1.34 0.67 -0.68 0.34 0 0 Z " fill="#FE0505" transform="translate(198,138)"/>
<path d="M0 0 C2.31 0.33 4.62 0.66 7 1 C6.25 3.4375 6.25 3.4375 5 6 C2.875 6.8125 2.875 6.8125 1 7 C0.67 4.69 0.34 2.38 0 0 Z " fill="#4551A2" transform="translate(74,84)"/>
<path d="M0 0 C-0.99 3.3 -1.98 6.6 -3 10 C-4.04449911 6.86650268 -3.93423645 6.01031744 -3 3 C-3.83144531 3.45052734 -3.83144531 3.45052734 -4.6796875 3.91015625 C-5.40414062 4.29042969 -6.12859375 4.67070313 -6.875 5.0625 C-7.95394531 5.63677734 -7.95394531 5.63677734 -9.0546875 6.22265625 C-9.69664062 6.47917969 -10.33859375 6.73570313 -11 7 C-11.66 6.67 -12.32 6.34 -13 6 C-11.21118264 4.99491199 -9.41885304 3.99607264 -7.625 3 C-6.62726563 2.443125 -5.62953125 1.88625 -4.6015625 1.3125 C-2 0 -2 0 0 0 Z " fill="#C19130" transform="translate(182,32)"/>
<path d="M0 0 C3.37462715 0.54723683 5.08235 1.0549 8 3 C8 4.32 8 5.64 8 7 C7.01 7 6.02 7 5 7 C0 1.53488372 0 1.53488372 0 0 Z " fill="#E3D1B3" transform="translate(177,174)"/>
<path d="M0 0 C0.99 0.33 1.98 0.66 3 1 C3 3.97 3 6.94 3 10 C2.01 10.33 1.02 10.66 0 11 C0 7.37 0 3.74 0 0 Z " fill="#DCA005" transform="translate(1,117)"/>
<path d="M0 0 C0.66 1.65 1.32 3.3 2 5 C0.68 5 -0.64 5 -2 5 C-2.33 5.66 -2.66 6.32 -3 7 C-3.99 7 -4.98 7 -6 7 C-5.6875 4.625 -5.6875 4.625 -5 2 C-2 0 -2 0 0 0 Z " fill="#424FA3" transform="translate(123,52)"/>
<path d="M0 0 C3.63 0 7.26 0 11 0 C10.67 0.99 10.34 1.98 10 3 C7.03 3 4.06 3 1 3 C0.67 2.01 0.34 1.02 0 0 Z " fill="#DCA005" transform="translate(117,1)"/>
<path d="M0 0 C0 0.99 0 1.98 0 3 C-5.625 6 -5.625 6 -9 6 C-9 5.01 -9 4.02 -9 3 C-2.25 0 -2.25 0 0 0 Z " fill="#FF0A0A" transform="translate(210,89)"/>
<path d="M0 0 C4.95 1.98 4.95 1.98 10 4 C9.67 4.99 9.34 5.98 9 7 C2.25 5.25 2.25 5.25 0 3 C0 2.01 0 1.02 0 0 Z " fill="#FF0202" transform="translate(14,88)"/>
<path d="M0 0 C-1.05098766 2.86632997 -1.66862954 3.83006643 -4.4375 5.25 C-7 6 -7 6 -10 6 C-10 5.34 -10 4.68 -10 4 C-3.375 0 -3.375 0 0 0 Z " fill="#FE0505" transform="translate(210,85)"/>
<path d="M0 0 C3.0831351 1.19899698 6.06279492 2.47700477 9 4 C9 4.66 9 5.32 9 6 C5.28111761 5.49287967 2.26545761 4.88391785 -1 3 C-0.67 2.01 -0.34 1.02 0 0 Z " fill="#FF0B0B" transform="translate(16,85)"/>
<path d="M0 0 C1.7290774 -0.02725341 3.45828176 -0.04650987 5.1875 -0.0625 C6.15042969 -0.07410156 7.11335938 -0.08570313 8.10546875 -0.09765625 C10.85576513 -0.00486622 13.32479591 0.37888315 16 1 C14 3 14 3 11.7578125 3.046875 C10.45457031 2.89992187 10.45457031 2.89992187 9.125 2.75 C8.26132813 2.66234375 7.39765625 2.5746875 6.5078125 2.484375 C4.01809898 2.00349575 2.194714 1.2453726 0 0 Z " fill="#D29B14" transform="translate(117,36)"/>
<path d="M0 0 C1.32 0 2.64 0 4 0 C4.33 1.65 4.66 3.3 5 5 C4.01 4.67 3.02 4.34 2 4 C2 4.66 2 5.32 2 6 C0.68 6 -0.64 6 -2 6 C-1.34 4.02 -0.68 2.04 0 0 Z " fill="#D6B575" transform="translate(100,205)"/>
<path d="M0 0 C1 2 1 2 2 5 C3.18110732 6.63386009 3.18110732 6.63386009 4.5625 8.1875 C5.366875 9.115625 6.17125 10.04375 7 11 C0.125 10.125 0.125 10.125 -1 9 C-1.1328125 7.1875 -1.1328125 7.1875 -1.125 5 C-1.12757812 4.278125 -1.13015625 3.55625 -1.1328125 2.8125 C-1 1 -1 1 0 0 Z " fill="#D4B06C" transform="translate(51,183)"/>
<path d="M0 0 C0.99 0.99 1.98 1.98 3 3 C1.35 3.33 -0.3 3.66 -2 4 C-2 5.32 -2 6.64 -2 8 C-2.66 7.67 -3.32 7.34 -4 7 C-4 6.34 -4 5.68 -4 5 C-4.66 4.67 -5.32 4.34 -6 4 C-5.34 4 -4.68 4 -4 4 C-3.67 3.01 -3.34 2.02 -3 1 C-2.01 0.67 -1.02 0.34 0 0 Z " fill="#CAA667" transform="translate(50,175)"/>
<path d="M0 0 C0.8971875 0.309375 0.8971875 0.309375 1.8125 0.625 C1.1525 1.285 0.4925 1.945 -0.1875 2.625 C-0.1875 3.615 -0.1875 4.605 -0.1875 5.625 C-1.1775 5.625 -2.1675 5.625 -3.1875 5.625 C-3.5175 4.965 -3.8475 4.305 -4.1875 3.625 C-5.1775 4.285 -6.1675 4.945 -7.1875 5.625 C-5.69046729 2.17030914 -4.27938051 -0.73360809 0 0 Z " fill="#C6A263" transform="translate(178.1875,172.375)"/>
<path d="M0 0 C0.99 0 1.98 0 3 0 C2.45276317 3.37462715 1.9451 5.08235 0 8 C-0.33 7.01 -0.66 6.02 -1 5 C-1.66 4.67 -2.32 4.34 -3 4 C-1.6875 2 -1.6875 2 0 0 Z " fill="#CCCFD3" transform="translate(94,166)"/>
<path d="M0 0 C1.32 0 2.64 0 4 0 C4.33 1.32 4.66 2.64 5 4 C4.21625 4.28875 3.4325 4.5775 2.625 4.875 C-0.09671632 5.84912254 -0.09671632 5.84912254 -2 8 C-2 7.01 -2 6.02 -2 5 C-2.66 5 -3.32 5 -4 5 C-3.67 3.68 -3.34 2.36 -3 1 C-3 1.99 -3 2.98 -3 4 C-1.68 3.34 -0.36 2.68 1 2 C0.67 1.34 0.34 0.68 0 0 Z " fill="#FFCFCF" transform="translate(196,134)"/>
<path d="M0 0 C0.33 0 0.66 0 1 0 C1.22304441 1.74818591 1.4278645 3.49870323 1.625 5.25 C1.74101563 6.22453125 1.85703125 7.1990625 1.9765625 8.203125 C2 11 2 11 0 15 C-0.66 11.37 -1.32 7.74 -2 4 C-1.34 4 -0.68 4 0 4 C0 2.68 0 1.36 0 0 Z " fill="#C49122" transform="translate(4,123)"/>
<path d="M0 0 C1.98 0 3.96 0 6 0 C6 0.99 6 1.98 6 3 C4 4.6875 4 4.6875 2 6 C1.67 5.01 1.34 4.02 1 3 C0.01 2.67 -0.98 2.34 -2 2 C-1.34 2 -0.68 2 0 2 C0 1.34 0 0.68 0 0 Z " fill="#CFD1D5" transform="translate(123,168)"/>
<path d="M0 0 C0.66 0 1.32 0 2 0 C1.54663921 4.87362847 0.2910841 7.39042389 -3 11 C-3.99 10.67 -4.98 10.34 -6 10 C-5.01 9.67 -4.02 9.34 -3 9 C-1.97718482 6.90280128 -1.97718482 6.90280128 -1.3125 4.4375 C-1.06113281 3.61121094 -0.80976563 2.78492187 -0.55078125 1.93359375 C-0.36902344 1.29550781 -0.18726563 0.65742187 0 0 Z " fill="#FE2626" transform="translate(27,87)"/>
<path d="M0 0 C-0.66 0.474375 -1.32 0.94875 -2 1.4375 C-2.99 2.2109375 -2.99 2.2109375 -4 3 C-4 3.33 -4 3.66 -4 4 C-6.31 4 -8.62 4 -11 4 C-11 3.01 -11 2.02 -11 1 C-7.27569643 0.30710631 -3.78916254 -0.11144596 0 0 Z " fill="#DBA006" transform="translate(135,219)"/>
<path d="M0 0 C0 0.99 0 1.98 0 3 C-3 5 -3 5 -5.6875 4.625 C-6.450625 4.41875 -7.21375 4.2125 -8 4 C-8 3.01 -8 2.02 -8 1 C-7.05125 1.020625 -6.1025 1.04125 -5.125 1.0625 C-2.09333717 1.22551826 -2.09333717 1.22551826 0 0 Z " fill="#FD2323" transform="translate(147,72)"/>
<path d="M0 0 C1.65 0.33 3.3 0.66 5 1 C4.67 2.32 4.34 3.64 4 5 C2.35 4.67 0.7 4.34 -1 4 C-0.67 2.68 -0.34 1.36 0 0 Z " fill="#B8BCCB" transform="translate(78,62)"/>
<path d="M0 0 C0.66 0 1.32 0 2 0 C2 1.98 2 3.96 2 6 C3.65 6 5.3 6 7 6 C5 8 5 8 2.375 8.125 C1.59125 8.08375 0.8075 8.0425 0 8 C0 5.36 0 2.72 0 0 Z " fill="#FBF5EB" transform="translate(124,202)"/>
<path d="M0 0 C4.455 0.99 4.455 0.99 9 2 C9 2.99 9 3.98 9 5 C5.7 4.01 2.4 3.02 -1 2 C-0.67 1.34 -0.34 0.68 0 0 Z " fill="#CB961C" transform="translate(83,182)"/>
<path d="M0 0 C1.32 0.66 2.64 1.32 4 2 C3.41734375 2.26554688 2.8346875 2.53109375 2.234375 2.8046875 C-0.06174228 4.03302996 -1.80356018 5.40314939 -3.75 7.125 C-4.36359375 7.66382813 -4.9771875 8.20265625 -5.609375 8.7578125 C-6.06828125 9.16773438 -6.5271875 9.57765625 -7 10 C-5.17495091 6.07699728 -2.81729174 3.26212728 0 0 Z " fill="#D6B77F" transform="translate(46,172)"/>
<path d="M0 0 C1.32 0 2.64 0 4 0 C4.33 1.32 4.66 2.64 5 4 C3.68 4.99 2.36 5.98 1 7 C0.34 5.02 -0.32 3.04 -1 1 C-0.67 0.67 -0.34 0.34 0 0 Z " fill="#CED0D4" transform="translate(85,166)"/>
<path d="M0 0 C0.99 0.33 1.98 0.66 3 1 C0.69 3.31 -1.62 5.62 -4 8 C-4.99 7.67 -5.98 7.34 -7 7 C-4.69 4.69 -2.38 2.38 0 0 Z " fill="#DCA108" transform="translate(62,53)"/>
<path d="M0 0 C1.125 3.75 1.125 3.75 0 6 C-1.98 6 -3.96 6 -6 6 C-5.34 5.67 -4.68 5.34 -4 5 C-3.67 4.34 -3.34 3.68 -3 3 C-2 1 -2 1 0 0 Z " fill="#F4E7CD" transform="translate(60,187)"/>
<path d="M0 0 C0.66 1.32 1.32 2.64 2 4 C1.34 4 0.68 4 0 4 C-0.28875 4.9075 -0.5775 5.815 -0.875 6.75 C-1.76531776 9.32202908 -2.71494413 11.61346766 -4 14 C-4.66 13.67 -5.32 13.34 -6 13 C-4.02 8.71 -2.04 4.42 0 0 Z " fill="#CB9619" transform="translate(213,151)"/>
<path d="M0 0 C0.66 0.33 1.32 0.66 2 1 C1.34 1.66 0.68 2.32 0 3 C1.65 3.33 3.3 3.66 5 4 C5 4.33 5 4.66 5 5 C4.06027344 5.19916016 4.06027344 5.19916016 3.1015625 5.40234375 C1.87566406 5.66724609 1.87566406 5.66724609 0.625 5.9375 C-0.18710938 6.11152344 -0.99921875 6.28554687 -1.8359375 6.46484375 C-4.029463 6.92330693 -4.029463 6.92330693 -6 8 C-4.55746343 4.63408134 -2.66735273 2.48952921 0 0 Z " fill="#ABB0C5" transform="translate(152,97)"/>
<path d="M0 0 C0.66 0.33 1.32 0.66 2 1 C1.67 3.64 1.34 6.28 1 9 C-0.32 9.33 -1.64 9.66 -3 10 C-2.34 9.67 -1.68 9.34 -1 9 C-1.20625 8.2575 -1.4125 7.515 -1.625 6.75 C-2.04408751 3.67669159 -1.61949011 2.57213134 0 0 Z " fill="#FEFDFB" transform="translate(94,199)"/>
<path d="M0 0 C1.65 0 3.3 0 5 0 C5.625 2.8125 5.625 2.8125 6 6 C5.01 7.485 5.01 7.485 4 9 C3.34 8.67 2.68 8.34 2 8 C2.226875 7.236875 2.45375 6.47375 2.6875 5.6875 C2.790625 4.800625 2.89375 3.91375 3 3 C1.66621425 1.1645201 1.66621425 1.1645201 0 0 Z " fill="#6876B3" transform="translate(109,62)"/>
<path d="M0 0 C7.42857143 -0.28571429 7.42857143 -0.28571429 11 2 C10.030625 1.979375 9.06125 1.95875 8.0625 1.9375 C5.12534105 1.64381501 5.12534105 1.64381501 4 3 C2.33382885 3.04063832 0.66611905 3.042721 -1 3 C-0.67 2.01 -0.34 1.02 0 0 Z " fill="#D89E09" transform="translate(89,219)"/>
<path d="M0 0 C2 1 2 1 2.66796875 2.890625 C4.38738561 10.6991046 4.38738561 10.6991046 3 15 C2.67 15 2.34 15 2 15 C2 13.02 2 11.04 2 9 C1.34 8.67 0.68 8.34 0 8 C0 5.36 0 2.72 0 0 Z " fill="#9D7748" transform="translate(60,183)"/>
<path d="M0 0 C0.66 0 1.32 0 2 0 C2.625 1.8125 2.625 1.8125 3 4 C2.01 5.485 2.01 5.485 1 7 C0.01 6.67 -0.98 6.34 -2 6 C-1.34 4.02 -0.68 2.04 0 0 Z " fill="#D39C1A" transform="translate(216,144)"/>
<path d="M0 0 C0.33 0.66 0.66 1.32 1 2 C1.66 2 2.32 2 3 2 C3.33 2.99 3.66 3.98 4 5 C1.03 5 -1.94 5 -5 5 C-5.33 4.34 -5.66 3.68 -6 3 C-4.02 2.67 -2.04 2.34 0 2 C0 1.34 0 0.68 0 0 Z " fill="#FFE2E2" transform="translate(23,130)"/>
<path d="M0 0 C0.78375 0.639375 1.5675 1.27875 2.375 1.9375 C4.79539281 3.98142313 4.79539281 3.98142313 7 5 C7 5.66 7 6.32 7 7 C5.68 7.33 4.36 7.66 3 8 C0 3.375 0 3.375 0 0 Z " fill="#7A88BC" transform="translate(103,71)"/>
<path d="M0 0 C3.3 0.33 6.6 0.66 10 1 C9.01 2.485 9.01 2.485 8 4 C5.03 3.505 5.03 3.505 2 3 C2 2.34 2 1.68 2 1 C1.34 0.67 0.68 0.34 0 0 Z " fill="#C49120" transform="translate(82,217)"/>
<path d="M0 0 C1.875 0.25 1.875 0.25 4 1 C5.25 3.0625 5.25 3.0625 6 5 C0.25 4.25 0.25 4.25 -2 2 C-1.34 2 -0.68 2 0 2 C0 1.34 0 0.68 0 0 Z " fill="#DA9F0A" transform="translate(71,213)"/>
<path d="M0 0 C1.41377341 2.63904371 2.37240135 5.07120629 3 8 C2.01 8.33 1.02 8.66 0 9 C-0.66 6.36 -1.32 3.72 -2 1 C-1.34 0.67 -0.68 0.34 0 0 Z " fill="#D09D28" transform="translate(39,130)"/>
<path d="M0 0 C2.31 0.33 4.62 0.66 7 1 C7 1.66 7 2.32 7 3 C6.34 3.66 5.68 4.32 5 5 C3.68 5 2.36 5 1 5 C0.67 3.35 0.34 1.7 0 0 Z " fill="#FDBFC0" transform="translate(17,93)"/>
<path d="M0 0 C1.485 0.99 1.485 0.99 3 2 C2.125 6.75 2.125 6.75 1 9 C0.34 8.67 -0.32 8.34 -1 8 C-0.67 5.36 -0.34 2.72 0 0 Z " fill="#BFC3CD" transform="translate(162,81)"/>
<path d="M0 0 C3.375 -0.125 3.375 -0.125 7 0 C7.66 0.66 8.32 1.32 9 2 C7.125 3.0625 7.125 3.0625 5 4 C4.34 3.67 3.68 3.34 3 3 C3 2.34 3 1.68 3 1 C2.01 0.67 1.02 0.34 0 0 Z " fill="#D79D0D" transform="translate(142,6)"/>
<path d="M0 0 C1.98 0 3.96 0 6 0 C5.67 1.32 5.34 2.64 5 4 C3.68 4.33 2.36 4.66 1 5 C0.67 3.35 0.34 1.7 0 0 Z " fill="#D6B26A" transform="translate(159,194)"/>
<path d="M0 0 C0.66 0 1.32 0 2 0 C2 1.65 2 3.3 2 5 C0.68 5.33 -0.64 5.66 -2 6 C-1.125 1.125 -1.125 1.125 0 0 Z " fill="#030C8A" transform="translate(68,192)"/>
<path d="M0 0 C0 0.33 0 0.66 0 1 C-1.45635371 1.22174933 -2.91522956 1.42698698 -4.375 1.625 C-5.18710938 1.74101562 -5.99921875 1.85703125 -6.8359375 1.9765625 C-7.55007812 1.98429688 -8.26421875 1.99203125 -9 2 C-9.66 1.34 -10.32 0.68 -11 0 C-7.18243176 -1.37432457 -3.92744671 -0.67975039 0 0 Z " fill="#CA9417" transform="translate(131,187)"/>
<path d="M0 0 C0.99 0.66 1.98 1.32 3 2 C2.34 3.32 1.68 4.64 1 6 C-0.65 5.67 -2.3 5.34 -4 5 C-2.68 4.67 -1.36 4.34 0 4 C0 2.68 0 1.36 0 0 Z " fill="#0C128A" transform="translate(81,149)"/>
<path d="M0 0 C2.475 0.99 2.475 0.99 5 2 C5 2.99 5 3.98 5 5 C3.35 5 1.7 5 0 5 C0 3.35 0 1.7 0 0 Z " fill="#7280B8" transform="translate(76,148)"/>
<path d="M0 0 C0.99 0 1.98 0 3 0 C2.67 1.98 2.34 3.96 2 6 C1.67 5.34 1.34 4.68 1 4 C0.34 4 -0.32 4 -1 4 C-0.67 2.68 -0.34 1.36 0 0 Z M-3 4 C-2.34 4.33 -1.68 4.66 -1 5 C-1.99 5 -2.98 5 -4 5 C-3.67 4.67 -3.34 4.34 -3 4 Z " fill="#1D2282" transform="translate(215,137)"/>
<path d="M0 0 C1.32 0.33 2.64 0.66 4 1 C3.67 3.31 3.34 5.62 3 8 C2.67 7.34 2.34 6.68 2 6 C1.34 5.67 0.68 5.34 0 5 C0 3.35 0 1.7 0 0 Z " fill="#C69323" transform="translate(4,81)"/>
<path d="M0 0 C-1.6875 1.5625 -1.6875 1.5625 -4 3 C-6.75 2.6875 -6.75 2.6875 -9 2 C-6.98558063 -2.02883874 -3.72407517 -0.90585612 0 0 Z " fill="#FF5151" transform="translate(205,80)"/>
<path d="M0 0 C0.66 0 1.32 0 2 0 C3.5625 2.8125 3.5625 2.8125 5 6 C4.67 6.99 4.34 7.98 4 9 C1.49701566 6.06171403 0.53069061 3.82097239 0 0 Z " fill="#FF0A0A" transform="translate(195,87)"/>
<path d="M0 0 C3.25543229 0.34879632 4.01873107 1.02133261 6.25 3.5625 C6.8275 4.366875 7.405 5.17125 8 6 C4.74456771 5.65120368 3.98126893 4.97866739 1.75 2.4375 C1.1725 1.633125 0.595 0.82875 0 0 Z " fill="#CE9613" transform="translate(163,56)"/>
<path d="M0 0 C0.66 0 1.32 0 2 0 C2.33 1.32 2.66 2.64 3 4 C3.99 3.67 4.98 3.34 6 3 C5.34 4.32 4.68 5.64 4 7 C2.35 5.02 0.7 3.04 -1 1 C-0.67 0.67 -0.34 0.34 0 0 Z " fill="#191883" transform="translate(136,16)"/>
<path d="M0 0 C1.98 0.495 1.98 0.495 4 1 C3.54625 1.598125 3.0925 2.19625 2.625 2.8125 C1.36704087 4.50590652 0.17015276 6.24477086 -1 8 C-1.125 2.25 -1.125 2.25 0 0 Z " fill="#FDFBF7" transform="translate(52,183)"/>
<path d="M0 0 C0 2.97 0 5.94 0 9 C-0.33 9 -0.66 9 -1 9 C-1 7.35 -1 5.7 -1 4 C-1.99 4.33 -2.98 4.66 -4 5 C-4 4.01 -4 3.02 -4 2 C-1 0 -1 0 0 0 Z " fill="#CC9723" transform="translate(4,106)"/>
<path d="M0 0 C0.99 0 1.98 0 3 0 C3 1.98 3 3.96 3 6 C2.01 6 1.02 6 0 6 C0 4.02 0 2.04 0 0 Z " fill="#F8EEDB" transform="translate(59,40)"/>
<path d="M0 0 C0.99 0.33 1.98 0.66 3 1 C2.67 1.66 2.34 2.32 2 3 C3.65 3 5.3 3 7 3 C7 3.33 7 3.66 7 4 C4.03 4 1.06 4 -2 4 C-1.34 2.68 -0.68 1.36 0 0 Z " fill="#CC9723" transform="translate(108,0)"/>
</svg>
